<?xml version="1.0" encoding="utf-8"?>
<!-- Generator: Adobe Illustrator 24.0.1, SVG Export Plug-In . SVG Version: 6.00 Build 0)  -->
<svg version="1.1" id="위치" xmlns="http://www.w3.org/2000/svg" xmlns:xlink="http://www.w3.org/1999/xlink" x="0px" y="0px"
	 viewBox="0 0 450 790" style="enable-background:new 0 0 450 790;" xml:space="preserve">
<style type="text/css">
	.avatarSt0{fill:#FFE7DF;stroke:#000000;stroke-width:3;stroke-miterlimit:10;}
	.avatarSt1{fill:none;stroke:#000000;stroke-miterlimit:10;}
	.avatarSt2{fill:#FFCAC3;}
	.avatarSt3{fill:#CCC5C4;stroke:#000000;stroke-width:3;stroke-miterlimit:10;}
	.avatarSt4{fill:#604533;stroke:#000000;stroke-width:3;stroke-miterlimit:10;}
	.avatarSt5{fill:#FF9C9C;stroke:#000000;stroke-width:3;stroke-miterlimit:10;}
	.avatarSt6{fill:#FFFFFF;stroke:#000000;stroke-width:3;stroke-miterlimit:10;}
	.avatarSt7{fill:#C1BDBD;stroke:#000000;stroke-width:3;stroke-miterlimit:10;}
</style>
<path class="avatarSt0" d="M208.8,288.9v26.6c0,0-32,8.3-47.6,14.5c-15.5,6.2-19.2,19.4-21.5,33c-2.3,13.6-20.2,139.9-20.2,139.9
	s-18.5,35,18.4,32.5c0,0,26.5,1,9.9-32.2l18.9-118.8c0,0,1.7,55.2,0,70.6s-7.1,19.9-11.2,55.1c-4.2,35.3,15.4,122.8,21.6,203.7
	c-0.5,3.6-9.3,37.2,8.4,38.8l15.2,0.5c20.4-0.8,10.7-41.6,10.7-41.6c-0.8-4.6,9.8-204.4,9.8-204.4h8.3c0,0,10.6,199.8,9.8,204.4
	c0,0-9.8,40.8,10.7,41.6l15.2-0.5c17.8-1.7,9-35.3,8.4-38.8c6.2-80.9,25.7-168.4,21.6-203.7c-4.2-35.2-9.5-39.7-11.2-55.1
	c-1.7-15.4,0-70.6,0-70.6l18.9,118.8c-16.6,33.1,9.9,32.2,9.9,32.2c36.8,2.5,18.4-32.5,18.4-32.5S313,376.6,310.7,363
	c-2.3-13.6-6-26.8-21.5-33c-15.5-6.2-47.6-14.5-47.6-14.5v-26.6H208.8z"/>
<path d="M308.6,526.3l-0.3,8.5c0,0-2.5,0.2-4.2-1.4l4.1-7.4C308.2,525.7,308.6,525.9,308.6,526.3z"/>
<rect class="avatarSt1" width="450" height="790"/>
<g>
	<path class="avatarSt0" d="M154,216c0,0-14.7,0.4-11.9,20.2s22.3,21.2,22.3,21.2L154,216z"/>
	<path class="avatarSt0" d="M296,216c0,0,14.7,0.4,11.9,20.2c-2.9,19.8-22.3,21.2-22.3,21.2L296,216z"/>
</g>
<path class="avatarSt0" d="M297.8,196.2c0,0,4.4-75.2-72.8-75.2s-72.8,75.2-72.8,75.2s-5.2,67.8,30.6,89.4c17,10.3,28.2,13.2,34.8,15.3
	c4.8,1.6,10,1.6,14.8,0c6.5-2.1,17.7-5,34.8-15.3C302.9,264,297.8,196.2,297.8,196.2z"/>
<g>
	<path class="avatarSt2" d="M188.9,266.5h-12.3c-7.8,0-14.1-6.3-14.1-14.1v0c0-7.8,6.3-14.1,14.1-14.1h12.3c7.8,0,14.1,6.3,14.1,14.1v0
		C202.9,260.2,196.6,266.5,188.9,266.5z"/>
	<path class="avatarSt2" d="M273.4,266.5h-12.3c-7.8,0-14.1-6.3-14.1-14.1v0c0-7.8,6.3-14.1,14.1-14.1h12.3c7.8,0,14.1,6.3,14.1,14.1v0
		C287.5,260.2,281.2,266.5,273.4,266.5z"/>
</g>
<path class="avatarSt3" d="M167.1,401.3c0,0,7.8-20.8,25.3-16.6s32.8,28.5,32.8,28.5s-29.6,18.1-58.1,4.8C167.1,418,166,407.6,167.1,401.3
	z"/>
<path class="avatarSt3" d="M282.9,401.3c0,0-7.8-20.8-25.3-16.6s-32.8,28.5-32.8,28.5s29.6,18.1,58.1,4.8C282.9,418,284,407.6,282.9,401.3
	z"/>
<line class="avatarSt3" x1="225" y1="398.4" x2="225" y2="413.2"/>
<rect x="223.3" y="450.3" width="3" height="3"/>
<path class="avatarSt3" d="M157.7,494.3h134.2l1,7.4c0,0-41.8,24.2-68,24.2s-68.1-24.6-68.1-24.6L157.7,494.3z"/>
<path class="avatarSt4" d="M224.9,96.7L224.9,96.7C224.9,96.7,224.8,96.7,224.9,96.7c-0.1,0-0.2,0-0.2,0v0c-101.2,0.1-90,108.6-83.5,136.9
	c0,0.2,0.3,0.1,0.2-0.1c-0.9-9.5,4.5-14,7.7-15.9c1.5-0.8,2.4-2.3,2.7-3.9c1.7-12.2,6.2-24.1,8.8-30c0.4-0.8,1.6-0.6,1.6,0.3
	c0,4.4-0.7,7.5,1.1,13.8h58.5l2.3-14.7c0.1-1.1,1.7-1.1,1.8,0l2.1,14.7h56.9c0,0,1.7-1.9,2.2-13.2c0-1.1,1.6-1.4,2-0.4
	c2.5,6,6.8,17.4,8.5,29.1c0.3,1.9,1.3,3.5,2.9,4.5c3.2,1.9,8.2,6.3,7.6,15.4c0,0.2,0.3,0.2,0.3,0.1
	C315.1,204.3,325.7,96.8,224.9,96.7z"/>
<path class="avatarSt5" d="M225.9,525.9l3.2,37.1h66.8c4.7-40.9-3.9-68.7-3.9-68.7H158c0,0-8.6,27.8-3.9,68.7h66.8l3.3-37.1H225.9z"/>
<path class="avatarSt6" d="M324.3,436.3l1.1,7.5c0.1,0.9-0.6,1.7-1.5,1.7h-28.3c-0.8,0-1.4-0.6-1.5-1.3l-1.4-10.1c-0.1-1,0.7-1.8,1.6-1.7
	L323,435C323.7,435.1,324.2,435.6,324.3,436.3z"/>
<path class="avatarSt6" d="M125.7,436.3l-1.1,7.5c-0.1,0.9,0.6,1.7,1.5,1.7h28.3c0.8,0,1.4-0.6,1.5-1.3l1.4-10.1c0.1-1-0.7-1.8-1.6-1.7
	L127,435C126.3,435.1,125.8,435.6,125.7,436.3z"/>
<path class="avatarSt6" d="M203.7,316.2l4.4-1.2c0,0,5.8,6.1,16.9,6.1s16.2-6.1,16.2-6.1l7.5,2.3c0,0-3.3,12.7-22.5,12.7
	S196.9,318.1,203.7,316.2z"/>
<path class="avatarSt7" d="M293.8,439.3h33c0.8,0,1.3-0.7,1.2-1.4l-5.9-33c-9.2-50.9-8.6-68.1-27.3-75c-16.7-6.2-41.6-12.3-46.6-13.5
	c-0.5-0.1-1.1,0.1-1.4,0.5c-1.7,2.4-8.1,9.7-20.7,9.7h-1.2c-12.6,0-19-7.3-20.7-9.7c-0.3-0.4-0.9-0.6-1.4-0.5
	c-5.1,1.2-29.9,7.4-46.6,13.5c-18.7,6.9-18.1,24.2-27.3,75l-5.9,33c-0.1,0.8,0.4,1.4,1.2,1.4h33l-3.3,37.6h144L293.8,439.3z"/>
<line class="avatarSt4" x1="159.1" y1="395" x2="156.6" y2="439.3"/>
<line class="avatarSt4" x1="293.4" y1="439.3" x2="290.9" y2="395"/>
<path d="M141.9,526.3l0.3,8.5c0,0,2.5,0.2,4.2-1.4l-4.1-7.4C142.2,525.7,141.9,525.9,141.9,526.3z"/>
<path d="M264.6,212.4h-16.5c-0.9,0-1.7-0.8-1.7-1.7l0,0c0-0.9,0.8-1.7,1.7-1.7h16.5c0.9,0,1.7,0.8,1.7,1.7l0,0
	C266.3,211.6,265.5,212.4,264.6,212.4z"/>
<circle cx="253.2" cy="228" r="5.6"/>
<path d="M200.7,212.4h-16.5c-0.9,0-1.7-0.8-1.7-1.7l0,0c0-0.9,0.8-1.7,1.7-1.7h16.5c0.9,0,1.7,0.8,1.7,1.7l0,0
	C202.4,211.6,201.6,212.4,200.7,212.4z"/>
<circle cx="194.8" cy="228" r="5.6"/>
<ellipse cx="225" cy="245.6" rx="1.8" ry="2.8"/>
<path d="M246.7,268.8c-0.5-0.5-1.3-0.5-1.8-0.1c-1.6,1.2-6.4,3.2-19.5,3.2c-13.1,0-17.8-2.1-19.5-3.2c-0.5-0.4-1.3-0.3-1.8,0.1
	c-0.6,0.5-0.5,2.5,0.1,3c7,4.6,19,4.2,21.2,4c2.2,0.1,14.2,0.5,21.2-4C247.2,271.3,247.2,269.3,246.7,268.8z"/>
</svg>
