<?xml version="1.0" encoding="utf-8"?>
<!-- Generator: Adobe Illustrator 24.0.1, SVG Export Plug-In . SVG Version: 6.00 Build 0)  -->
<svg version="1.1" id="레이어_1" xmlns="http://www.w3.org/2000/svg" xmlns:xlink="http://www.w3.org/1999/xlink" x="0px"
	 y="0px" viewBox="0 0 113.1 98.3" style="enable-background:new 0 0 113.1 98.3;" xml:space="preserve">
<style type="text/css">
	.st0{fill:#7F7F80;}
	.st1{fill:#EFEA3A;stroke:#000000;stroke-miterlimit:10;}
</style>
<path class="st0" d="M57.7,6.2L14.4,87c-2.3,4.3,0.3,9.9,4.6,9.9h86.6c4.3,0,6.9-5.6,4.6-9.9L66.8,6.2C64.7,2.2,59.8,2.2,57.7,6.2z"
	/>
<path class="st1" d="M52.2,4.7L10.8,82.7c-2.2,4.1,0.3,9.6,4.4,9.6H98c4.1,0,6.6-5.4,4.4-9.6L60.9,4.7C58.9,0.9,54.2,0.9,52.2,4.7z"
	/>
<g>
	<path d="M56.6,65h-0.1l0,0c-1.3-3.3-2.4-6.7-3-10.1c-1.1-5.9-1.7-9.4-1.7-15.4v0c0-2.3,2.1-6.6,4.8-6.6h0c2.6,0,4.8,4.4,4.8,6.6v0
		c0,6-0.6,9.5-1.7,15.4C59,58.4,58,61.7,56.6,65L56.6,65z"/>
	<circle cx="56.5" cy="72.4" r="3.1"/>
</g>
</svg>
