<?xml version="1.0" encoding="utf-8"?>
<!-- Generator: Adobe Illustrator 24.0.1, SVG Export Plug-In . SVG Version: 6.00 Build 0)  -->
<svg version="1.1" id="레이어_1" xmlns="http://www.w3.org/2000/svg" xmlns:xlink="http://www.w3.org/1999/xlink" x="0px"
	 y="0px" viewBox="0 0 100 100" style="enable-background:new 0 0 100 100;" xml:space="preserve">
<style type="text/css">
	.st0{fill:#E2E2E1;}
	.st1{fill:#F3B6B5;}
	.st2{fill:#2D2C29;}
	.st3{clip-path:url(#SVGID_2_);}
	.st4{fill:#FFFFFF;}
</style>
<g>
	<g>
		<g>
			<path class="st0" d="M30.7,26.9c0,0-1.9-12.4-14.3-11.5c0,0-3,15.4,11.3,15.6L30.7,26.9z"/>
			<path class="st1" d="M29.4,27.7c0,0-2.4-9.2-9.3-8.8c0,0-1.4,9,7.4,9.8L29.4,27.7z"/>
		</g>
		<g>
			<path class="st0" d="M69.3,26.9c0,0,1.9-12.4,14.3-11.5c0,0,3,15.4-11.3,15.6L69.3,26.9z"/>
			<path class="st1" d="M70.6,27.7c0,0,2.4-9.2,9.3-8.8c0,0,1.4,9-7.4,9.8L70.6,27.7z"/>
		</g>
	</g>
	<g>
		<g>
			<path class="st2" d="M45.5,16.9c0,0-5-0.8-2.6-6.7c0,0,3.4,0.2,4.2,3.4c0,0-2.6-3.1-1.7-7.3c0,0,6.5,0.3,6.8,7.5
				S45.5,16.9,45.5,16.9z"/>
			<g>
				<defs>
					<path id="SVGID_1_" d="M53.4,92.3h-6.8c-17,0-30.1-13.1-28.2-28l3.4-26.8C23.4,24.8,35.5,15.2,50,15.2h0
						c14.5,0,26.6,9.6,28.2,22.3l3.4,26.8C83.5,79.2,70.4,92.3,53.4,92.3z"/>
				</defs>
				<use xlink:href="#SVGID_1_"  style="overflow:visible;fill:#E2E2E1;"/>
				<clipPath id="SVGID_2_">
					<use xlink:href="#SVGID_1_"  style="overflow:visible;"/>
				</clipPath>
				<g class="st3">
					<g>
						<path class="st2" d="M41.7,24.9h-0.3c-0.9,0-1.6-0.7-1.6-1.6v-9.7c0-0.9,0.7-1.6,1.6-1.6h0.3c0.9,0,1.6,0.7,1.6,1.6v9.7
							C43.2,24.2,42.5,24.9,41.7,24.9z"/>
						<path class="st2" d="M58.6,24.9h-0.3c-0.9,0-1.6-0.7-1.6-1.6v-9.7c0-0.9,0.7-1.6,1.6-1.6h0.3c0.9,0,1.6,0.7,1.6,1.6v9.7
							C60.2,24.2,59.5,24.9,58.6,24.9z"/>
						<path class="st2" d="M50.1,23.7h-0.3c-0.9,0-1.6-0.7-1.6-1.6v-9.7c0-0.9,0.7-1.6,1.6-1.6h0.3c0.9,0,1.6,0.7,1.6,1.6v9.7
							C51.7,23,51,23.7,50.1,23.7z"/>
					</g>
					<g>
						<path class="st2" d="M25.9,45.8H13.8c-0.9,0-1.7-0.8-1.7-1.7v-0.3c0-0.9,0.8-1.7,1.7-1.7h12.1c0.9,0,1.7,0.8,1.7,1.7v0.3
							C27.6,45.1,26.9,45.8,25.9,45.8z"/>
						<path class="st2" d="M24,53.4H11.9c-0.9,0-1.7-0.8-1.7-1.7v-0.3c0-0.9,0.8-1.7,1.7-1.7H24c0.9,0,1.7,0.8,1.7,1.7v0.3
							C25.7,52.6,24.9,53.4,24,53.4z"/>
						<path class="st2" d="M74.1,45.8h12.1c0.9,0,1.7-0.8,1.7-1.7v-0.3c0-0.9-0.8-1.7-1.7-1.7H74.1c-0.9,0-1.7,0.8-1.7,1.7v0.3
							C72.4,45.1,73.1,45.8,74.1,45.8z"/>
						<path class="st2" d="M76,53.4h12.1c0.9,0,1.7-0.8,1.7-1.7v-0.3c0-0.9-0.8-1.7-1.7-1.7H76c-0.9,0-1.7,0.8-1.7,1.7v0.3
							C74.3,52.6,75.1,53.4,76,53.4z"/>
					</g>
				</g>
			</g>
			<path class="st2" d="M18.2,68c0,0,1.6-14.3,31.8-14.3s31.8,15.6,31.8,15.6S84.6,93.7,50,93.7S18.2,68,18.2,68z"/>
		</g>
		<g>
			<ellipse class="st1" cx="33.9" cy="65.2" rx="3.1" ry="4.1"/>
			<ellipse class="st1" cx="66.1" cy="65.2" rx="3.1" ry="4.1"/>
		</g>
		<g>
			<g>
				<ellipse class="st2" cx="37" cy="47.7" rx="3.3" ry="3"/>
				<ellipse class="st4" cx="37.8" cy="47.8" rx="1.6" ry="1.4"/>
			</g>
			<path class="st2" d="M37.5,40.1h-2.4c-0.5,0-0.8-0.4-0.8-0.8v-0.2c0-0.5,0.4-0.8,0.8-0.8h2.4c0.5,0,0.8,0.4,0.8,0.8v0.2
				C38.3,39.7,37.9,40.1,37.5,40.1z"/>
			<g>
				<ellipse class="st2" cx="63" cy="47.7" rx="3.3" ry="3"/>
				<ellipse class="st4" cx="62.2" cy="47.8" rx="1.6" ry="1.4"/>
			</g>
			<path class="st2" d="M62.5,40.1h2.4c0.5,0,0.8-0.4,0.8-0.8v-0.2c0-0.5-0.4-0.8-0.8-0.8h-2.4c-0.5,0-0.8,0.4-0.8,0.8v0.2
				C61.7,39.7,62.1,40.1,62.5,40.1z"/>
		</g>
	</g>
</g>
</svg>
