<?xml version="1.0" encoding="utf-8"?>
<!-- Generator: Adobe Illustrator 24.0.1, SVG Export Plug-In . SVG Version: 6.00 Build 0)  -->
<svg version="1.1" id="레이어_1" xmlns="http://www.w3.org/2000/svg" xmlns:xlink="http://www.w3.org/1999/xlink" x="0px"
	 y="0px" viewBox="0 0 100 100" style="enable-background:new 0 0 100 100;" xml:space="preserve">
<style type="text/css">
	.st0{fill:#FAFAFA;}
	.st1{fill:#3C1E1E;}
	.st2{fill:#FFFFFF;}
</style>
<circle class="st0" cx="50" cy="50" r="45.3"/>
<g>
	<path class="st1" d="M50,30.2c-11.9,0-21.5,7.6-21.5,17c0,6,4,11.3,9.9,14.3L36.6,69c-0.1,0.6,0.5,1,1,0.7l8.3-5.8
		c1.3,0.2,2.7,0.3,4.1,0.3c11.9,0,21.5-7.6,21.5-17S61.9,30.2,50,30.2z"/>
	<g>
		<path class="st2" d="M41.3,44.3c0.6,0,1.1-0.5,1.1-1.1s-0.5-1.1-1.1-1.1H35c-0.6,0-1.1,0.5-1.1,1.1s0.5,1.1,1.1,1.1h2v7.4
			c0,0.6,0.5,1.2,1.2,1.2s1.2-0.5,1.2-1.2v-7.4H41.3z"/>
		<path class="st2" d="M65.5,51l-3.2-4.2l2.9-2.9c0.4-0.4,0.4-1.1,0-1.6c-0.4-0.4-1.1-0.4-1.6,0L60,46v-3c0-0.6-0.5-1.1-1.1-1.1l0,0
			c-0.6,0-1.1,0.5-1.1,1.1v8.5c0,0.6,0.5,1.1,1.1,1.1l0,0c0.6,0,1.1-0.5,1.1-1.1v-2.4c0.1,0,0.1-0.1,0.2-0.1l0.5-0.5l3,3.9
			c0.4,0.5,1.1,0.6,1.6,0.2C65.7,52.2,65.8,51.5,65.5,51z"/>
		<path class="st2" d="M56.1,50.4h-2.9V43c0-0.6-0.5-1.1-1.1-1.1S51,42.4,51,43v8.5c0,0.6,0.5,1.1,1.1,1.1h4c0.6,0,1.1-0.5,1.1-1.1
			C57.2,50.9,56.7,50.4,56.1,50.4z"/>
		<path class="st2" d="M46.9,42.5c-0.2-0.4-0.6-0.7-1-0.7l0,0h-0.8l0,0c-0.4,0-0.9,0.3-1,0.7l-3.3,8.8c-0.2,0.6,0.1,1.2,0.6,1.4
			c0.6,0.2,1.2-0.1,1.4-0.6l0.6-1.5h4.1l0.6,1.5c0.2,0.6,0.9,0.9,1.4,0.6c0.6-0.2,0.9-0.9,0.6-1.4L46.9,42.5z M44.2,48.5l1.3-3.5
			l1.3,3.5H44.2z"/>
	</g>
</g>
</svg>
