<?xml version="1.0" encoding="utf-8"?>
<!-- Generator: Adobe Illustrator 24.0.1, SVG Export Plug-In . SVG Version: 6.00 Build 0)  -->
<svg version="1.1" id="레이어_1" xmlns="http://www.w3.org/2000/svg" xmlns:xlink="http://www.w3.org/1999/xlink" x="0px"
	 y="0px" viewBox="0 0 100 100" style="enable-background:new 0 0 100 100;" xml:space="preserve">
<style type="text/css">
	.st0{fill:#EFEFEF;}
	.st1{fill:#2F3138;}
	.st2{fill:#E7EAF2;}
	.st3{fill:#F2B3C0;}
</style>
<ellipse class="st0" cx="50" cy="62.1" rx="35.2" ry="20.8"/>
<g>
	<circle class="st1" cx="20.5" cy="29.8" r="11.8"/>
	<circle class="st1" cx="79.5" cy="29.8" r="11.8"/>
</g>
<ellipse class="st0" cx="50" cy="51.3" rx="34.2" ry="31.6"/>
<g>
	<ellipse transform="matrix(0.754 -0.6569 0.6569 0.754 -22.2739 35.0825)" class="st1" cx="35.7" cy="47.3" rx="10.7" ry="9.3"/>
	<circle cx="37.7" cy="46.2" r="3"/>
	<circle class="st2" cx="38.6" cy="45.2" r="1.1"/>
	<ellipse transform="matrix(0.6569 -0.754 0.754 0.6569 -13.6116 64.6904)" class="st1" cx="64.3" cy="47.3" rx="9.3" ry="10.7"/>
	<circle cx="62.3" cy="46.2" r="3"/>
	<circle class="st2" cx="61.4" cy="45.2" r="1.1"/>
</g>
<g>
	<path class="st1" d="M48,53.8h3.7c1.6,0,2.4,1.4,1.3,2.2l-1.8,1.4c-0.7,0.5-1.9,0.5-2.7,0L46.7,56C45.6,55.3,46.4,53.8,48,53.8z"/>
	<rect x="49.3" y="56.9" class="st1" width="1.4" height="6.1"/>
	<rect x="43.8" y="63" class="st1" width="12.4" height="1.4"/>
</g>
<g>
	<ellipse class="st3" cx="25.7" cy="59.1" rx="4.9" ry="3"/>
	<ellipse class="st3" cx="74.3" cy="59.1" rx="4.9" ry="3"/>
</g>
</svg>
