<?xml version="1.0" encoding="utf-8"?>
<!-- Generator: Adobe Illustrator 24.0.1, SVG Export Plug-In . SVG Version: 6.00 Build 0)  -->
<svg version="1.1" id="레이어_1" xmlns="http://www.w3.org/2000/svg" xmlns:xlink="http://www.w3.org/1999/xlink" x="0px"
	 y="0px" viewBox="0 0 112.3 19" style="enable-background:new 0 0 112.3 19;" xml:space="preserve">
<style type="text/css">
	.st0{fill:#979696;}
	.st1{fill:#D26CA1;}
	.st2{fill:#6DBED1;}
	.st3{fill:#94CE6E;}
</style>
<path class="st0" d="M0,9.5h1.9V7.6h1.9V5.7h1.9V3.8h1.9V1.9h3.8v1.9H9.5v1.9H7.6v1.9H5.7v1.9H3.8v1.9h1.9v1.9h1.9v1.9h1.9v1.9h1.9
	V19H7.6v-1.9H5.7v-1.9H3.8v-1.9H1.9v-1.9H0V9.5z"/>
<path class="st1" d="M13.3,0h11.4v1.9h1.9v15.2h-1.9V19H13.3V0z M17.1,1.9v15.2h5.7V1.9H17.1z"/>
<path class="st1" d="M28.6,7.6h1.9V5.7H40v1.9h1.9v3.8h-9.5v5.7h5.7v-1.9h3.8v1.9H40V19h-9.5v-1.9h-1.9V7.6z M32.4,7.6v1.9h5.7V7.6
	H32.4z"/>
<path class="st1" d="M43.8,5.7h3.8v9.5h1.9v1.9h1.9v-1.9h1.9V5.7h3.8v9.5h-1.9v1.9h-1.9V19h-5.7v-1.9h-1.9v-1.9h-1.9
	C43.8,15.2,43.8,5.7,43.8,5.7z"/>
<path class="st2" d="M60.9,15.2h3.8V19h-3.8C60.9,19,60.9,15.2,60.9,15.2z"/>
<path class="st3" d="M68.5,5.7h3.8v11.4h3.8v-1.9H78V5.7h3.8V19H78v-1.9h-1.9V19h-5.7v-1.9h-1.9C68.5,17.1,68.5,5.7,68.5,5.7z"/>
<path class="st0" d="M83.8,15.2h1.9v-1.9h1.9v-1.9h1.9V9.5h1.9V7.6h1.9V5.7h1.9V3.8h1.9v3.8h-1.9v1.9h-1.9v1.9h-1.9v1.9h-1.9v1.9
	h-1.9v1.9h-1.9V19h-1.9V15.2z"/>
<path class="st0" d="M100.9,1.9h3.8v1.9h1.9v1.9h1.9v1.9h1.9v1.9h1.9v1.9h-1.9v1.9h-1.9v1.9h-1.9v1.9h-1.9V19h-3.8v-1.9h1.9v-1.9
	h1.9v-1.9h1.9v-1.9h1.9V9.5h-1.9V7.6h-1.9V5.7h-1.9V3.8h-1.9V1.9z"/>
</svg>
