<?xml version="1.0" encoding="utf-8"?>
<!-- Generator: Adobe Illustrator 24.0.1, SVG Export Plug-In . SVG Version: 6.00 Build 0)  -->
<svg version="1.1" id="레이어_1" xmlns="http://www.w3.org/2000/svg" xmlns:xlink="http://www.w3.org/1999/xlink" x="0px"
	 y="0px" viewBox="0 0 82.3 99.5" style="enable-background:new 0 0 82.3 99.5;" xml:space="preserve">
<style type="text/css">
	.profileSt0{fill:#FBDACA;}
	.profileSt1{fill:#323232;}
	.profileSt2{fill:#D26CA1;}
	.profileSt3{fill:#ABAAAA;}
	.profileSt4{fill:#323333;}
	.profileSt5{fill:#F8E6E0;}
	.profileSt6{fill:#F19999;}
	.profileSt7{fill:#FFFFFF;}
	
</style>
<rect x="56" y="55.9" class="profileSt0" width="16" height="22.9"/>
<polygon class="profileSt1" points="42.3,8 42.3,4 58.3,4 58.3,8 66.3,8 66.3,15.8 70.3,15.8 70.3,40 66.3,40 66.3,45.4 38.3,45.4 
	38.3,49.4 30.2,49.4 30.2,54.8 26.2,54.8 26.2,67.5 18.2,67.5 18.2,54.8 22.2,54.8 22.2,40.1 30.2,40.1 30.2,16 34.3,16 34.3,8 "/>
<polygon class="profileSt2" points="64,78.8 64,62.8 74.3,62.8 74.3,54.8 70.3,54.8 70.3,49.4 62.3,49.4 62.3,45.4 38.3,45.4 38.3,49.4 
	30.2,49.4 30.2,54.8 26.2,54.8 26.2,99.5 67.5,99.5 67.5,78.8 "/>
<rect x="48" y="86.8" class="profileSt0" width="8" height="8"/>
<rect x="28.7" y="62.8" class="profileSt0" width="5.6" height="8"/>
<rect x="23.1" y="62.8" class="profileSt1" width="5.6" height="8"/>
<rect x="56" y="78.8" class="profileSt0" width="8" height="8"/>
<polygon class="profileSt0" points="60,30.7 60,24.2 40.9,24.2 40.9,30.7 38.3,30.7 38.3,37.3 40.9,37.3 42.3,37.3 42.3,42.7 47.3,42.7 
	47.3,50.7 53.2,50.7 53.2,42.7 58.3,42.7 58.3,37.3 60,37.3 62.3,37.3 62.3,30.7 "/>
<g>
	<g>
		<rect x="7.9" y="59.5" class="profileSt3" width="40.9" height="36.9"/>
		<rect x="15.9" y="86.8" class="profileSt3" width="48.1" height="9.5"/>
	</g>
	<g>
		<rect x="24.8" y="72" class="profileSt4" width="6.3" height="4.6"/>
		<rect x="25.6" y="72.1" class="profileSt4" width="4.7" height="7.4"/>
		<rect x="23.2" y="74.5" class="profileSt4" width="9.4" height="2.5"/>
		<rect x="27.2" y="71.2" class="profileSt3" width="1.5" height="1.5"/>
		<rect x="27.2" y="69" class="profileSt4" width="1.5" height="1.5"/>
	</g>
</g>
<rect x="45.3" y="48.2" class="profileSt2" width="3.6" height="3.6"/>
<rect x="51.7" y="48.2" class="profileSt2" width="3.7" height="3.7"/>
<g>
	<g>
		<rect x="48" y="30.8" class="profileSt1" width="4.4" height="1.3"/>
	</g>
</g>
<g>
	<polygon class="profileSt5" points="53.7,27.4 53.7,28.7 52.4,28.7 52.4,34.5 53.8,34.5 53.8,35.9 59.6,35.9 59.6,34.6 60.9,34.6 
		60.9,28.8 59.5,28.8 59.5,27.4 	"/>
	<rect x="54.1" y="30.5" class="profileSt1" width="2.2" height="2.2"/>
	<rect x="56.2" y="32.7" class="profileSt6" width="3.8" height="3.2"/>
	<g>
		<g>
			<rect x="60.9" y="28.8" class="profileSt1" width="1.4" height="5.8"/>
			<rect x="53.7" y="26" class="profileSt1" width="5.8" height="1.4"/>
			<rect x="53.8" y="35.9" class="profileSt1" width="5.8" height="1.4"/>
			<rect x="59.6" y="34.6" class="profileSt1" width="1.3" height="1.3"/>
			<rect x="59.5" y="27.4" class="profileSt1" width="1.4" height="1.4"/>
			<rect x="51" y="28.7" class="profileSt1" width="1.4" height="5.8"/>
			<rect x="52.4" y="34.5" class="profileSt1" width="1.4" height="1.4"/>
			<rect x="52.4" y="27.4" class="profileSt1" width="1.4" height="1.3"/>
		</g>
	</g>
	<rect x="58.6" y="31.5" class="profileSt7" width="1.4" height="2.4"/>
	<rect x="58.6" y="29.5" class="profileSt7" width="1.4" height="1.2"/>
</g>
<g>
	<polygon class="profileSt5" points="46.9,27.4 46.9,28.7 48.2,28.7 48.2,34.5 46.8,34.5 46.8,35.9 41,35.9 41,34.6 39.7,34.6 39.7,28.8 
		41.1,28.8 41.1,27.4 	"/>
	<rect x="44.4" y="30.5" class="profileSt1" width="2.2" height="2.2"/>
	<rect x="40.6" y="32.7" class="profileSt6" width="3.8" height="3.2"/>
	<g>
		<g>
			<rect x="38.3" y="28.8" class="profileSt1" width="1.4" height="5.8"/>
			<rect x="41.1" y="26" class="profileSt1" width="5.8" height="1.4"/>
			<rect x="41" y="35.9" class="profileSt1" width="5.8" height="1.4"/>
			<rect x="39.7" y="34.6" class="profileSt1" width="1.3" height="1.3"/>
			<rect x="39.7" y="27.4" class="profileSt1" width="1.4" height="1.4"/>
			<rect x="48.2" y="28.7" class="profileSt1" width="1.4" height="5.8"/>
			<rect x="46.8" y="34.5" class="profileSt1" width="1.4" height="1.4"/>
			<rect x="46.9" y="27.4" class="profileSt1" width="1.4" height="1.3"/>
		</g>
	</g>
	<rect x="40.6" y="31.5" class="profileSt7" width="1.4" height="2.4"/>
	<rect x="40.6" y="29.5" class="profileSt7" width="1.4" height="1.2"/>
</g>
<rect x="-0.1" y="91.5" class="profileSt4" width="82.4" height="8"/>
<rect x="48.2" y="38.9" class="profileSt1" width="4.1" height="1.5"/>
</svg>
