<?xml version="1.0" standalone="no"?>
<!DOCTYPE svg PUBLIC "-//W3C//DTD SVG 20010904//EN"
 "http://www.w3.org/TR/2001/REC-SVG-20010904/DTD/svg10.dtd">
<svg version="1.0" xmlns="http://www.w3.org/2000/svg"
 width="800.000000pt" height="1164.000000pt" viewBox="0 0 800.000000 1164.000000"
 preserveAspectRatio="xMidYMid meet">

<g transform="translate(0.000000,1164.000000) scale(0.100000,-0.100000)"
fill="#ffffff" stroke="none">
<path d="M3259 11508 c-16 -32 -91 -108 -105 -108 -7 0 -32 -18 -56 -40 -59
-54 -134 -82 -217 -79 -36 1 -87 -4 -114 -11 -43 -12 -51 -12 -95 9 l-49 23
-49 -31 c-31 -19 -63 -30 -84 -30 -99 1 -131 0 -202 -9 -42 -5 -83 -14 -91
-20 -32 -27 -110 -62 -137 -62 -29 0 -100 -31 -130 -56 -8 -7 -34 -23 -57 -36
-223 -124 -286 -164 -314 -199 -28 -36 -61 -60 -101 -75 -10 -3 -18 -10 -18
-15 0 -5 -24 -24 -54 -43 -42 -27 -66 -53 -103 -112 -26 -43 -67 -99 -91 -124
-23 -26 -42 -52 -42 -59 0 -21 -32 -75 -70 -118 -20 -24 -45 -64 -54 -90 -19
-55 -51 -120 -101 -211 -19 -35 -35 -71 -35 -80 0 -10 -13 -45 -30 -79 -44
-94 -82 -223 -77 -259 3 -18 -1 -43 -8 -57 -7 -14 -16 -41 -20 -59 -21 -97
-48 -154 -101 -208 -29 -30 -58 -66 -64 -80 -15 -35 -36 -70 -49 -83 -6 -6
-11 -19 -11 -28 0 -10 -11 -31 -25 -47 -14 -17 -25 -39 -25 -50 0 -11 -18 -43
-40 -71 -22 -28 -45 -61 -50 -74 -6 -12 -14 -29 -19 -37 -5 -8 -13 -45 -19
-82 -6 -40 -19 -80 -32 -99 -16 -22 -25 -53 -31 -107 -4 -43 -15 -123 -24
-179 -14 -79 -15 -109 -6 -134 15 -43 13 -93 -6 -164 -9 -33 -15 -73 -15 -90
1 -16 4 -100 7 -185 2 -85 9 -164 14 -175 20 -41 51 -173 51 -217 0 -45 11
-112 32 -193 5 -22 30 -83 55 -135 25 -52 54 -117 65 -145 39 -99 112 -235
150 -282 22 -26 48 -63 58 -83 10 -20 40 -49 69 -68 27 -18 76 -62 108 -97 45
-49 79 -75 148 -110 50 -26 108 -64 130 -85 22 -21 54 -42 70 -46 17 -4 35
-10 40 -14 6 -4 26 -11 45 -15 60 -12 214 -67 232 -83 11 -9 53 -18 110 -23
51 -5 134 -14 183 -21 50 -6 99 -11 111 -11 56 2 136 36 214 93 51 37 93 60
109 60 16 0 39 12 56 29 85 84 123 130 137 166 9 22 25 63 37 92 13 32 21 74
21 110 0 46 4 61 18 70 23 14 99 8 155 -13 23 -8 60 -20 82 -26 22 -6 51 -21
65 -34 14 -12 38 -26 55 -30 75 -19 160 -73 205 -131 25 -32 51 -70 58 -85 11
-26 9 -29 -25 -55 -21 -16 -49 -40 -63 -54 -14 -14 -41 -34 -60 -44 -19 -10
-48 -33 -63 -51 -15 -19 -44 -41 -63 -50 -20 -10 -41 -29 -46 -43 -23 -54 -53
-117 -72 -150 -17 -29 -19 -52 -19 -172 1 -224 33 -285 230 -436 90 -68 133
-93 160 -93 11 0 57 -13 103 -30 47 -16 101 -30 121 -30 26 0 43 -8 63 -29
l28 -30 -12 -68 c-15 -84 -43 -155 -83 -211 -17 -23 -38 -64 -46 -90 -11 -33
-22 -48 -36 -50 -14 -2 -27 -21 -44 -65 -12 -34 -35 -78 -50 -97 -40 -51 -81
-124 -81 -144 0 -27 -28 -74 -49 -81 -18 -6 -45 -67 -71 -167 -7 -26 -18 -49
-25 -52 -7 -2 -27 -47 -44 -99 -19 -57 -41 -103 -56 -117 -14 -13 -25 -29 -25
-35 0 -7 -9 -20 -19 -29 -10 -10 -22 -38 -26 -64 -4 -30 -16 -57 -32 -74 -21
-22 -26 -40 -34 -120 -5 -51 -13 -120 -19 -153 -6 -33 -10 -125 -9 -205 1
-189 2 -180 -11 -195 -6 -7 -30 -15 -53 -18 -23 -2 -56 -10 -73 -17 -28 -12
-36 -11 -73 8 -58 31 -73 28 -94 -17 -15 -34 -26 -41 -90 -65 -39 -14 -79 -26
-88 -26 -10 0 -37 -11 -60 -25 -24 -14 -53 -25 -64 -25 -11 0 -58 -14 -105
-31 -119 -43 -178 -59 -230 -63 -25 -2 -98 -16 -164 -30 -65 -14 -136 -26
-158 -26 -49 0 -131 -20 -140 -34 -26 -38 13 -170 65 -224 44 -46 82 -54 178
-37 67 12 101 12 231 0 84 -8 198 -21 253 -29 179 -26 339 -29 430 -7 111 27
161 52 224 110 59 55 67 57 137 39 44 -12 47 -12 62 10 19 29 41 28 90 -4 l40
-26 5 -81 c2 -49 11 -95 22 -115 15 -29 15 -41 3 -120 -9 -59 -10 -104 -4
-139 6 -39 5 -68 -7 -115 -11 -44 -14 -86 -10 -139 5 -72 -1 -120 -29 -225 -8
-28 -22 -48 -45 -64 -31 -21 -44 -23 -147 -22 -103 2 -115 0 -132 -19 -28 -31
-82 -56 -139 -63 -28 -4 -56 -11 -63 -15 -6 -3 -25 -34 -43 -66 -34 -66 -66
-105 -85 -105 -25 0 -71 -68 -88 -131 -10 -35 -24 -71 -31 -79 -14 -16 -37
-160 -36 -220 2 -70 24 -121 63 -146 20 -13 49 -39 63 -59 22 -27 41 -39 95
-55 37 -11 89 -20 116 -20 63 0 204 -19 226 -31 17 -9 172 -28 233 -28 17 -1
68 -5 115 -10 234 -27 288 -32 319 -27 18 3 65 -1 103 -9 78 -17 312 -46 403
-50 33 -2 94 -8 135 -13 41 -6 107 -13 145 -16 39 -4 104 -10 145 -15 272 -33
409 -39 650 -33 36 1 117 1 180 -1 92 -2 123 0 155 14 51 23 389 67 519 68 83
1 107 5 153 26 31 14 68 25 83 25 15 0 46 7 69 15 22 8 41 12 41 9 0 -3 14 6
30 20 17 14 47 28 68 32 26 5 48 20 75 51 35 38 44 43 81 43 23 0 46 -4 52
-10 25 -25 462 -58 524 -39 55 16 181 39 222 39 20 0 65 13 100 30 34 16 68
30 75 30 16 0 53 39 64 68 5 13 18 56 28 95 16 62 17 80 7 127 -7 30 -17 66
-24 80 -6 14 -16 44 -22 66 -5 23 -17 47 -25 54 -7 6 -21 33 -30 60 -10 29
-30 61 -50 78 -18 16 -38 39 -44 51 -7 11 -28 30 -49 40 -20 11 -63 46 -94 79
-47 49 -64 61 -100 67 -58 10 -134 52 -169 94 -26 32 -33 35 -81 34 -61 -1
-85 11 -143 72 -46 50 -103 66 -197 58 -47 -4 -66 -1 -114 21 -40 19 -86 30
-145 35 -47 4 -92 12 -100 16 -7 5 -65 9 -129 10 -87 1 -129 7 -175 23 -55 19
-71 20 -195 11 -74 -5 -180 -16 -235 -25 -221 -34 -255 -31 -277 25 -10 27
-12 319 -2 344 6 17 76 37 129 37 43 0 121 22 193 56 29 13 60 24 70 24 9 0
30 7 46 15 15 8 32 15 36 15 4 0 30 21 58 47 28 27 74 62 101 78 28 17 71 56
96 88 25 31 51 57 57 57 7 0 29 34 48 76 19 42 40 80 47 86 24 19 71 114 78
157 4 24 18 76 32 115 19 57 23 82 18 127 -5 44 -3 64 11 90 16 30 24 81 23
159 0 14 1 48 3 75 7 126 2 190 -17 225 -15 28 -19 57 -19 148 -1 109 0 115
23 134 20 15 34 18 70 14 83 -11 221 -15 221 -8 0 4 26 14 58 21 59 13 122 57
136 95 33 94 49 261 26 291 -4 6 -17 43 -30 84 -39 124 -196 344 -312 436
-115 92 -120 101 -78 150 9 11 38 58 65 105 26 47 55 92 65 101 9 10 20 38 23
64 6 43 2 56 -41 144 -72 142 -137 240 -170 252 -15 6 -45 30 -68 55 -23 24
-50 44 -61 44 -11 0 -26 7 -33 16 -17 19 -225 120 -267 129 -17 3 -36 12 -42
19 -6 7 -30 21 -53 32 -24 10 -56 28 -71 41 -16 13 -33 23 -39 23 -5 0 -21 9
-35 20 -37 29 -115 27 -175 -5 -25 -13 -63 -27 -85 -31 -21 -3 -79 -27 -128
-53 -97 -52 -131 -87 -140 -150 -3 -20 -15 -65 -25 -101 -11 -36 -20 -77 -20
-92 0 -26 30 -68 48 -68 12 0 32 -47 32 -75 0 -18 -7 -25 -32 -30 -75 -15
-131 -39 -178 -76 -28 -22 -50 -46 -50 -53 0 -8 -7 -17 -15 -20 -9 -3 -22 -21
-30 -40 -8 -20 -25 -41 -37 -47 -30 -16 -124 -4 -173 21 -36 19 -49 21 -125
14 -108 -9 -115 -9 -350 -1 -167 7 -201 6 -233 -8 -36 -15 -105 -19 -258 -16
-31 1 -66 -2 -79 -7 -29 -11 -127 4 -157 24 -12 7 -29 14 -38 14 -8 0 -39 14
-68 30 -30 17 -60 30 -68 30 -25 0 -133 101 -179 167 l-45 65 0 111 c0 111 1
116 42 192 6 11 29 59 52 106 35 72 47 89 83 109 24 13 72 53 108 88 36 36 87
74 115 87 28 12 72 45 99 73 28 29 62 54 78 57 15 3 42 8 58 11 17 3 39 15 49
25 11 12 41 23 76 29 35 6 66 17 79 30 31 31 120 100 128 100 4 0 13 19 20 43
7 23 21 49 30 57 26 21 51 151 42 215 -3 27 -15 61 -25 74 -11 13 -19 38 -19
56 0 25 -14 50 -59 106 -72 90 -122 142 -129 134 -3 -3 -15 1 -27 9 -38 25
-97 36 -236 46 -109 7 -143 13 -170 29 -46 28 -69 27 -69 -3 0 -49 148 -103
315 -116 50 -3 100 -10 112 -16 25 -11 141 -145 163 -189 8 -16 22 -37 31 -45
9 -8 19 -30 22 -49 7 -34 -11 -161 -23 -161 -3 0 -6 -9 -7 -19 -2 -27 -47 -94
-80 -120 -88 -69 -110 -82 -153 -95 -56 -17 -102 -39 -124 -62 -9 -8 -32 -18
-52 -20 -30 -4 -93 -40 -114 -65 -3 -3 -15 -11 -27 -18 -36 -19 -93 19 -125
84 -11 22 -34 55 -52 73 -31 34 -140 92 -170 92 -19 0 -94 37 -112 55 -7 7
-29 16 -49 19 -20 4 -52 16 -71 27 -23 13 -54 19 -93 19 -51 0 -61 3 -75 25
-19 28 -20 70 -5 165 9 63 8 72 -12 112 -12 23 -21 45 -20 48 9 17 -15 166
-35 222 -13 38 -27 105 -30 150 -6 67 -14 97 -42 153 -25 49 -35 81 -33 108 2
37 -26 157 -39 167 -6 5 -77 134 -123 225 -50 101 -210 286 -290 338 -29 19
-37 25 -120 96 -81 69 -97 72 -111 26 -4 -14 0 -23 13 -30 10 -6 44 -29 74
-52 31 -24 61 -43 67 -43 12 0 180 -170 180 -182 0 -4 8 -16 18 -26 27 -27
122 -169 122 -182 0 -16 29 -70 60 -110 35 -45 56 -112 72 -229 9 -69 18 -102
34 -120 13 -17 23 -47 28 -86 4 -33 11 -64 16 -69 6 -6 10 -25 10 -43 0 -35
15 -110 32 -158 6 -16 15 -66 20 -110 4 -44 11 -98 14 -120 3 -22 5 -53 5 -70
-1 -16 -3 -93 -6 -170 -5 -196 -17 -263 -60 -339 -21 -37 -44 -66 -56 -69 -11
-3 -23 -14 -25 -24 -5 -18 -97 -83 -118 -83 -7 0 -23 -14 -35 -31 -14 -19 -52
-45 -96 -66 l-73 -34 -85 21 c-47 11 -117 22 -155 23 -39 2 -76 8 -83 13 -22
18 -79 34 -117 34 -20 0 -56 12 -86 29 -28 16 -69 33 -91 36 -49 9 -61 19 -85
66 -17 31 -27 39 -71 50 -37 10 -62 24 -88 52 -20 22 -60 50 -90 64 -39 17
-79 50 -143 116 -132 136 -138 143 -160 195 -11 26 -29 58 -38 72 -10 14 -21
41 -25 60 -4 19 -13 45 -21 57 -8 12 -14 27 -14 33 0 6 -16 35 -36 64 -20 30
-37 70 -39 88 -2 19 -11 52 -20 74 -15 35 -19 52 -30 121 -2 12 -6 26 -9 32
-4 5 -8 38 -11 73 -2 37 -14 85 -28 118 -23 51 -24 60 -14 118 9 51 8 82 -7
166 l-17 103 22 42 c19 37 21 50 13 104 -12 90 -11 200 3 228 7 13 13 72 15
131 3 91 7 111 25 137 22 29 42 108 46 184 1 25 8 42 20 48 9 6 17 15 17 20 0
6 8 23 19 37 10 15 22 43 26 62 4 19 17 51 29 70 43 66 53 85 59 110 4 14 23
50 43 80 20 30 43 68 51 84 8 16 34 50 58 75 53 57 58 79 56 217 -2 87 2 122
17 165 10 29 30 86 42 124 24 72 81 188 106 216 8 8 14 27 14 41 0 22 26 69
82 150 10 15 35 60 55 100 19 39 61 104 92 145 31 40 73 95 93 122 26 34 53
57 92 75 39 18 68 42 98 81 24 29 51 54 61 54 10 1 20 8 23 16 4 8 12 15 18
15 18 0 116 48 151 74 75 55 166 105 201 111 22 4 48 10 59 14 58 23 93 34
120 38 17 2 39 8 50 13 11 5 54 12 95 15 83 6 98 8 120 18 20 8 180 18 304 19
115 0 123 -5 135 -80 14 -88 58 -108 53 -24 -2 30 3 43 23 62 23 22 29 23 57
12 24 -9 41 -9 70 0 29 8 48 8 77 0 21 -7 51 -12 66 -12 16 0 42 -4 59 -9 103
-31 147 -41 180 -41 21 0 62 -13 96 -30 33 -16 67 -30 75 -30 14 0 65 -33 101
-65 24 -21 57 -41 139 -85 46 -25 120 -67 163 -93 78 -46 194 -87 249 -87 14
0 40 -4 57 -10 104 -32 145 -44 176 -51 19 -4 55 -13 80 -20 25 -6 69 -11 98
-10 29 1 76 -5 103 -14 35 -12 64 -15 100 -10 33 5 54 3 64 -5 11 -9 25 -10
53 -3 38 10 297 2 308 -9 3 -4 21 0 39 8 43 18 103 17 135 -1 14 -8 40 -14 59
-15 19 0 48 -4 65 -9 17 -6 67 -15 112 -21 65 -10 85 -9 102 1 16 10 26 10 44
2 13 -7 50 -15 83 -18 33 -4 93 -20 134 -36 41 -16 90 -30 110 -31 42 -1 205
-52 241 -76 14 -9 38 -23 55 -30 16 -7 52 -28 80 -46 27 -18 85 -50 127 -71
46 -22 80 -45 83 -57 4 -10 19 -21 35 -24 17 -4 54 -32 91 -71 35 -35 73 -72
83 -81 25 -21 60 -59 130 -142 30 -36 67 -77 81 -91 14 -15 25 -31 25 -36 0
-5 18 -37 41 -72 22 -34 45 -76 51 -92 5 -16 13 -29 18 -29 4 0 27 -30 51 -67
24 -38 46 -70 50 -73 3 -3 10 -16 14 -29 4 -13 22 -40 39 -60 18 -20 41 -61
50 -91 10 -30 24 -62 31 -70 24 -28 65 -127 65 -156 0 -16 11 -56 25 -89 14
-34 25 -80 25 -107 0 -25 7 -74 16 -108 17 -68 15 -117 -10 -222 -8 -36 -15
-79 -15 -95 1 -15 -8 -59 -19 -98 -12 -38 -19 -79 -16 -90 3 -12 -5 -34 -21
-54 -14 -19 -25 -45 -25 -57 0 -13 -4 -25 -9 -28 -4 -3 -16 -31 -24 -63 -9
-32 -35 -85 -57 -118 -26 -39 -40 -71 -40 -93 0 -25 -9 -43 -32 -67 -18 -18
-44 -54 -57 -80 -14 -26 -49 -68 -79 -94 -29 -25 -59 -57 -65 -70 -7 -14 -30
-30 -57 -40 -27 -10 -49 -25 -55 -39 -5 -12 -15 -22 -22 -22 -7 0 -13 -5 -13
-10 0 -6 -24 -21 -54 -34 -29 -13 -57 -29 -60 -35 -4 -6 -26 -21 -49 -32 -23
-12 -53 -31 -67 -44 -14 -12 -51 -32 -82 -44 -32 -13 -62 -29 -69 -37 -6 -8
-20 -14 -30 -14 -21 0 -69 -20 -86 -36 -7 -7 -52 -24 -100 -39 -49 -14 -110
-34 -138 -44 -27 -10 -79 -24 -115 -30 -35 -7 -76 -19 -91 -26 -14 -8 -57 -19
-94 -25 -39 -6 -79 -20 -97 -33 -22 -16 -41 -21 -76 -20 -50 3 -91 -9 -132
-38 -14 -10 -38 -20 -55 -22 -16 -3 -52 -12 -80 -21 -27 -10 -60 -14 -73 -11
-24 6 -24 9 -18 63 3 31 13 76 21 100 8 23 19 82 24 130 5 48 14 105 20 127
13 50 14 86 1 105 -9 13 -15 10 -36 -15 -37 -44 -70 -114 -78 -162 -11 -75
-41 -153 -109 -289 -33 -66 -104 -145 -177 -198 -55 -39 -60 -63 -21 -105 27
-29 36 -32 83 -31 64 1 105 -8 138 -29 13 -9 40 -16 60 -17 56 -1 232 -32 268
-46 31 -12 38 -11 80 13 48 27 70 63 58 94 -5 15 -14 17 -59 10 -60 -9 -121
-10 -157 -2 -14 3 -72 11 -129 18 -114 14 -142 29 -134 71 5 24 52 58 81 58 9
0 30 -14 48 -31 l32 -31 22 25 c13 14 52 38 89 53 36 15 71 31 77 36 24 17
151 61 184 62 19 2 53 11 75 21 22 10 64 20 93 21 37 1 64 9 90 26 28 19 55
26 110 30 54 4 79 11 95 25 37 34 63 43 129 43 42 0 78 7 108 21 24 11 64 23
88 26 24 3 46 12 49 19 8 21 63 50 119 63 37 9 57 21 73 42 17 22 30 29 56 29
23 0 43 9 62 26 15 14 55 40 88 56 60 31 128 84 213 168 25 24 60 51 76 60 20
9 41 34 58 68 14 29 44 74 66 100 22 26 53 78 68 115 15 37 31 67 36 67 4 0 8
9 8 19 0 11 9 23 20 26 14 4 20 15 20 34 0 35 18 91 36 112 8 8 14 24 14 35 0
10 7 39 16 63 8 25 13 54 10 66 -3 12 3 44 14 72 11 30 21 87 24 135 3 53 11
99 24 128 19 40 20 52 10 115 -10 63 -12 121 -7 180 1 11 -11 46 -25 78 -21
45 -26 67 -21 100 5 34 0 54 -25 105 -16 35 -30 71 -30 79 0 9 -13 37 -29 62
-15 26 -32 58 -36 72 -4 13 -10 26 -14 29 -3 3 -26 43 -50 90 -25 47 -55 101
-68 120 -13 19 -23 42 -23 51 0 9 -7 22 -16 30 -9 7 -29 40 -46 73 -37 74
-121 187 -178 241 -23 22 -50 57 -61 77 -11 21 -36 52 -55 70 -20 18 -85 78
-144 134 -98 92 -192 154 -234 154 -7 0 -39 19 -72 42 -32 22 -85 53 -116 68
-32 15 -66 37 -75 48 -10 12 -51 30 -93 42 -41 12 -85 31 -97 42 -21 20 -27
20 -90 10 -63 -11 -70 -10 -97 9 -21 16 -44 21 -87 22 -38 0 -63 5 -71 14 -6
8 -24 21 -39 28 -24 13 -31 13 -55 0 -16 -8 -48 -17 -72 -21 -36 -5 -49 -3
-74 16 -29 21 -35 22 -96 12 -64 -11 -66 -11 -105 18 -32 23 -45 27 -75 23
-21 -4 -42 -13 -48 -21 -14 -19 -96 -27 -123 -13 -16 9 -31 9 -61 0 -31 -9
-52 -9 -101 1 -51 11 -62 11 -69 -1 -11 -17 -187 -14 -237 3 -23 9 -42 9 -68
1 -28 -9 -47 -8 -98 8 -34 10 -76 19 -93 19 -17 0 -51 11 -75 23 -24 13 -49
22 -56 20 -6 -2 -46 3 -90 12 -43 9 -91 19 -108 22 -16 3 -34 12 -38 19 -4 8
-32 21 -61 29 -30 9 -61 24 -71 35 -10 11 -32 24 -50 30 -54 18 -138 64 -149
83 -18 28 5 49 84 80 60 23 270 77 301 77 4 0 37 -22 73 -50 61 -46 96 -62 96
-42 0 5 -9 17 -20 27 -11 10 -20 24 -20 31 0 7 -17 25 -37 41 -21 15 -57 44
-80 65 -43 38 -43 38 -132 38 -50 0 -93 -4 -96 -10 -4 -6 -32 -23 -63 -39 -32
-16 -75 -48 -97 -70 -48 -50 -95 -81 -123 -81 -12 0 -41 20 -64 43 -58 59
-122 99 -188 119 -30 9 -73 24 -95 32 -22 8 -53 15 -68 16 -15 0 -50 11 -77
25 -52 27 -99 32 -131 14 -27 -14 -59 -2 -59 22 0 10 4 19 8 19 4 0 25 17 46
37 21 20 46 42 56 48 9 5 29 18 43 28 15 11 43 20 64 21 50 2 63 12 63 46 0
34 -14 40 -85 40 -46 0 -56 -3 -66 -22z m2159 -5607 c2 -6 16 -11 31 -11 16 0
45 -13 66 -30 21 -16 42 -30 46 -30 16 0 51 -82 54 -129 2 -25 -1 -68 -7 -95
-10 -48 -9 -51 17 -73 17 -15 37 -23 53 -21 26 3 32 10 53 65 17 41 56 63 112
63 33 0 49 -5 59 -19 7 -10 49 -37 93 -60 80 -41 169 -118 204 -176 36 -58 35
-86 -5 -166 -96 -196 -116 -221 -182 -237 -28 -6 -73 -9 -100 -5 -44 5 -51 3
-66 -18 -29 -42 -21 -68 29 -89 25 -11 45 -24 45 -30 0 -5 7 -10 16 -10 9 0
29 -14 45 -31 28 -30 29 -35 29 -129 0 -80 -3 -102 -19 -121 -10 -13 -21 -33
-25 -45 -8 -28 -63 -77 -101 -91 -16 -6 -52 -14 -80 -18 -27 -3 -63 -11 -80
-17 -49 -17 -107 5 -157 59 -75 80 -111 113 -127 113 -8 0 -33 -6 -56 -14 -22
-8 -52 -17 -66 -20 -19 -4 -29 -14 -34 -33 -3 -15 -20 -45 -36 -67 -16 -22
-29 -45 -29 -51 0 -11 -121 -112 -146 -122 -8 -3 -14 -11 -14 -17 0 -7 -17
-21 -37 -32 -21 -10 -50 -29 -65 -41 -15 -12 -46 -29 -68 -39 -22 -10 -40 -23
-40 -29 0 -14 -39 -39 -75 -47 -92 -21 -127 -32 -192 -64 -40 -20 -77 -33 -83
-29 -19 11 -181 6 -197 -6 -23 -19 -168 -24 -195 -7 -17 10 -50 14 -128 12
-58 -2 -114 1 -125 6 -11 5 -53 18 -94 29 -78 22 -151 60 -186 97 -27 29 -63
35 -78 13 -8 -13 -5 -24 16 -49 15 -17 27 -37 27 -43 1 -24 48 -69 81 -77 19
-4 63 -18 99 -30 105 -36 124 -42 145 -45 113 -18 146 -21 187 -17 31 2 70 -4
117 -18 74 -24 89 -24 236 1 67 11 79 12 115 10 96 -5 131 -1 152 19 27 25 63
26 73 3 4 -10 9 -53 10 -97 2 -68 8 -88 41 -153 43 -86 59 -99 146 -119 35 -8
78 -24 96 -34 28 -17 52 -20 161 -20 105 0 131 3 142 16 26 32 70 46 118 39
25 -4 51 -10 56 -14 6 -5 33 -13 60 -20 28 -7 66 -17 86 -23 23 -6 97 -8 196
-5 87 3 166 2 174 -3 25 -16 9 -204 -21 -234 -6 -6 -10 -22 -10 -37 0 -15 -5
-31 -11 -34 -6 -4 -8 -13 -5 -20 2 -7 2 -15 -1 -18 -3 -3 -6 -25 -8 -49 -2
-24 -17 -77 -34 -120 -17 -42 -31 -86 -31 -98 0 -19 -25 -67 -41 -80 -11 -9
-39 -68 -39 -83 0 -16 -75 -97 -90 -97 -5 0 -16 -13 -25 -29 -8 -16 -47 -51
-86 -77 -39 -26 -91 -64 -114 -84 -26 -23 -67 -45 -102 -55 -32 -10 -63 -24
-69 -32 -7 -8 -52 -27 -101 -43 -92 -30 -157 -63 -206 -102 -26 -22 -28 -30
-37 -136 -5 -63 -7 -126 -5 -140 4 -24 8 -61 18 -212 4 -48 23 -90 42 -90 9 0
26 7 39 15 14 10 66 20 127 25 57 6 127 14 154 20 113 23 181 29 223 19 34 -7
49 -6 74 7 22 12 37 13 52 6 12 -5 61 -20 109 -32 69 -17 91 -19 103 -10 7 7
14 9 14 6 0 -4 9 -2 21 4 13 7 25 8 32 2 14 -11 140 -39 204 -46 23 -2 68 -17
100 -32 47 -22 75 -28 146 -31 103 -3 140 -18 191 -73 29 -31 45 -40 83 -45
57 -8 102 -23 123 -42 8 -8 70 -45 136 -83 67 -38 134 -80 149 -94 15 -14 50
-40 79 -58 28 -18 57 -39 65 -46 19 -18 51 -78 51 -95 0 -7 12 -29 26 -50 15
-23 27 -57 30 -85 2 -26 6 -67 10 -92 5 -39 1 -51 -27 -94 -28 -42 -46 -55
-118 -90 -48 -22 -97 -39 -109 -38 -13 2 -34 -3 -45 -11 -25 -16 -118 -29
-134 -19 -6 4 -14 46 -17 93 -7 76 -12 94 -44 146 -54 86 -192 233 -219 233
-48 0 -19 -49 102 -173 60 -61 81 -102 93 -182 21 -131 2 -137 -333 -107 -92
8 -105 14 -105 48 0 24 -41 142 -60 174 -5 8 -21 41 -36 73 -19 41 -40 67 -68
87 -23 15 -71 60 -109 99 -63 66 -70 71 -110 71 -32 0 -56 9 -97 36 -75 50
-129 74 -167 74 -41 0 -199 74 -213 100 -10 19 -84 40 -144 40 -55 0 -181 36
-215 61 -28 20 -35 22 -64 11 -19 -7 -67 -12 -109 -12 -63 0 -81 4 -111 25
-34 22 -41 23 -94 15 -82 -14 -145 -12 -168 4 -30 20 -85 25 -116 9 -17 -8
-71 -15 -141 -17 -69 -2 -129 -9 -153 -18 -36 -14 -43 -14 -67 0 -39 23 -44
44 -68 274 -6 68 -5 95 7 130 12 36 13 56 3 123 -25 178 -22 170 -52 173 -23
3 -28 -1 -29 -20 -7 -113 -10 -264 -8 -368 1 -69 2 -143 2 -165 0 -62 -10
-162 -17 -174 -4 -6 5 -38 20 -71 26 -59 28 -61 58 -55 33 7 95 25 191 56 73
23 145 32 161 18 7 -6 21 -4 40 6 37 19 109 19 162 1 31 -11 56 -13 102 -6 66
9 200 -10 227 -32 10 -8 31 -8 84 2 77 15 144 5 263 -39 33 -13 75 -24 95 -26
20 -1 37 -4 39 -5 3 -3 12 -6 50 -15 17 -4 32 -11 32 -15 0 -12 107 -69 152
-80 20 -6 40 -15 43 -20 3 -6 15 -10 27 -10 11 0 32 -8 46 -19 15 -10 38 -22
52 -26 40 -11 122 -60 157 -92 17 -16 54 -45 82 -64 28 -18 51 -38 51 -42 0
-5 15 -27 34 -49 46 -54 69 -103 69 -152 0 -34 -6 -45 -37 -70 -20 -17 -36
-35 -36 -39 0 -5 -7 -15 -15 -23 -8 -9 -15 -24 -15 -33 0 -22 -73 -55 -142
-65 -26 -4 -50 -11 -53 -17 -4 -5 -17 -9 -31 -9 -14 0 -35 -6 -47 -14 -12 -8
-57 -16 -99 -20 -76 -5 -77 -5 -98 23 -12 19 -20 45 -20 73 0 27 -11 65 -30
103 -16 33 -30 65 -30 71 0 18 -73 121 -103 144 -15 12 -31 18 -37 15 -15 -9
-12 -61 4 -74 27 -22 113 -156 126 -195 18 -56 16 -133 -4 -155 -17 -19 -25
-20 -221 -36 -27 -3 -79 -11 -115 -20 -106 -25 -161 -26 -187 -2 -12 11 -20
24 -17 29 3 4 -4 20 -15 34 -12 15 -26 44 -31 65 -14 51 -152 199 -186 199
-17 0 -24 -6 -24 -19 0 -33 11 -50 46 -72 19 -11 54 -49 77 -83 74 -108 81
-130 49 -160 -16 -14 -57 -17 -278 -24 -344 -9 -416 -8 -499 11 -38 8 -73 13
-77 11 -4 -3 -20 1 -35 9 -18 9 -72 14 -157 16 -71 1 -137 6 -146 11 -32 17
-151 32 -165 20 -18 -15 -174 -6 -210 12 -28 14 -76 20 -360 48 -196 19 -264
29 -282 38 -21 11 -115 32 -170 37 -21 2 -51 8 -66 14 -16 6 -48 11 -72 11
-24 0 -47 5 -50 10 -3 6 -19 10 -35 10 -16 0 -37 8 -47 18 -10 10 -30 26 -45
35 -50 31 -72 120 -47 184 7 15 13 41 15 56 2 15 10 40 18 55 7 15 21 52 31
82 14 45 25 61 64 89 28 20 58 53 72 80 14 27 36 51 54 60 41 19 79 38 155 77
l65 34 125 -7 c148 -7 182 3 195 59 4 18 11 51 16 73 5 22 12 103 15 180 3 77
9 151 13 165 8 23 5 300 -3 400 -2 25 -7 99 -11 165 -8 115 -10 123 -46 185
-21 36 -52 83 -69 105 -63 79 -84 137 -115 312 -13 75 -13 96 -3 113 7 11 16
20 20 20 25 0 121 55 135 78 9 15 24 36 34 47 41 48 149 294 149 341 0 11 5
25 10 30 6 6 19 52 30 103 11 50 29 111 39 134 10 23 23 58 29 77 16 49 17
239 2 271 -18 40 12 288 41 335 11 19 26 37 33 41 14 9 86 154 86 175 0 7 14
33 30 57 22 32 30 56 30 88 0 24 5 54 11 65 7 13 7 24 1 30 -6 6 -7 22 -1 41
5 18 9 44 9 59 0 23 4 28 25 28 14 0 25 5 25 11 0 8 17 9 56 4 35 -4 60 -3 68
4 10 8 41 9 107 2 52 -5 110 -9 129 -9 53 1 148 -10 161 -17 6 -4 34 -10 63
-14 40 -5 53 -11 61 -29 15 -35 48 -38 88 -8 34 26 130 51 149 40 15 -9 126
16 188 44 66 29 86 46 111 94 17 33 102 123 134 141 8 4 37 12 65 17 76 14
132 56 142 104 8 37 7 40 -43 88 l-52 49 7 67 c9 86 46 165 89 188 90 47 130
65 167 73 22 5 40 7 40 4 0 -2 12 5 28 17 21 17 36 21 67 17 22 -3 41 -11 43
-16z m359 -133 c30 -28 29 -36 -3 -49 -32 -12 -74 11 -74 40 0 38 41 43 77 9z
m397 -967 c10 -11 31 -25 47 -31 16 -7 29 -17 29 -23 0 -6 20 -29 44 -51 61
-57 151 -186 196 -281 48 -100 75 -192 62 -208 -5 -7 -14 -38 -21 -70 -21 -98
-63 -132 -224 -181 -80 -25 -97 -27 -186 -21 -126 9 -134 4 -125 -96 5 -45 3
-85 -6 -112 -33 -112 -40 -124 -103 -173 l-62 -49 -95 -5 c-105 -6 -208 8
-257 33 -24 13 -35 28 -44 59 -9 36 -8 47 11 85 20 40 21 49 10 93 -19 80 -81
79 -94 -2 -4 -23 -13 -49 -21 -58 -7 -8 -18 -34 -24 -57 -7 -24 -20 -47 -30
-53 -10 -5 -21 -20 -25 -34 -7 -30 -48 -46 -141 -53 -59 -5 -82 -1 -150 22
-44 15 -90 33 -102 41 -46 29 -92 240 -63 294 5 10 30 28 56 40 25 13 66 40
91 61 24 22 51 39 59 39 8 0 14 6 14 13 0 11 29 27 75 41 21 7 85 96 85 119 0
8 17 22 38 33 43 22 82 53 82 67 0 15 71 152 83 159 17 11 70 -3 92 -23 11
-11 25 -38 30 -62 11 -41 13 -42 60 -50 28 -4 75 -5 106 -3 35 3 60 1 67 -6 8
-8 21 -8 50 0 22 7 72 12 111 12 40 0 82 5 94 11 46 24 87 82 87 124 0 16 7
49 15 72 8 24 18 80 21 126 5 67 3 89 -10 116 -10 18 -15 39 -12 47 8 20 60
17 80 -5z m-2996 -772 c2 -30 -3 -70 -12 -94 -8 -22 -22 -69 -31 -105 -9 -36
-20 -74 -25 -85 -5 -11 -16 -47 -25 -80 -9 -33 -21 -65 -26 -71 -5 -6 -12 -33
-15 -60 -4 -27 -13 -59 -20 -71 -8 -12 -14 -29 -14 -37 0 -21 -32 -77 -55 -97
-36 -31 -49 -9 -62 103 -4 40 0 55 29 105 47 81 66 130 72 189 14 116 80 321
117 361 20 20 25 22 43 9 16 -10 22 -26 24 -67z m-520 -1251 c22 -22 13 -44
-25 -62 -35 -17 -37 -17 -62 2 -14 10 -27 31 -29 45 -3 26 -2 27 50 27 30 0
59 -5 66 -12z m-207 -75 c14 -16 33 -39 42 -53 9 -14 32 -46 49 -72 18 -27 47
-55 65 -63 21 -10 35 -25 39 -43 3 -15 8 -33 10 -41 6 -19 -30 -56 -93 -97
-101 -65 -210 -95 -298 -82 -30 4 -51 3 -53 -2 -5 -13 -37 -13 -60 -1 -9 6
-66 15 -127 20 -60 6 -146 18 -190 26 -52 10 -126 15 -210 13 -276 -4 -252 -6
-279 27 -23 28 -44 100 -33 111 9 9 159 44 166 39 4 -2 41 5 82 15 41 11 97
22 124 25 141 17 255 41 302 65 23 11 50 20 60 20 25 0 105 25 143 45 18 9 51
23 74 30 22 7 59 20 81 29 57 22 78 20 106 -11z"/>
<path d="M3685 10008 c-16 -5 -44 -16 -62 -24 -17 -8 -53 -18 -78 -23 -25 -5
-53 -15 -63 -23 -17 -15 -142 -58 -168 -58 -7 0 -28 -9 -46 -19 -18 -11 -65
-24 -105 -31 -40 -6 -77 -18 -84 -26 -9 -11 -23 -13 -50 -9 -22 4 -40 2 -44
-4 -3 -6 -16 -11 -28 -11 -12 0 -35 -9 -52 -20 -16 -11 -40 -20 -52 -20 -27 0
-107 -76 -97 -91 10 -16 69 -39 100 -39 15 0 48 13 73 28 44 27 173 58 193 46
5 -3 23 3 41 14 17 11 70 30 117 42 47 13 99 31 115 41 17 10 55 21 85 24 64
8 127 34 154 64 11 12 27 21 37 21 22 0 91 31 101 45 11 15 -1 47 -24 68 -23
19 -22 19 -63 5z"/>
<path d="M4203 9977 c-27 -14 -30 -52 -8 -81 11 -14 22 -17 49 -13 20 3 50 1
68 -4 18 -5 121 -12 229 -15 168 -6 200 -4 226 10 19 9 33 12 35 6 4 -14 108
-26 108 -13 0 5 11 15 25 21 35 16 33 53 -2 73 -24 14 -47 15 -163 7 -170 -11
-288 -10 -365 3 -91 16 -177 19 -202 6z"/>
<path d="M5660 9165 c-44 -25 -70 -35 -113 -41 -23 -4 -49 -12 -57 -19 -8 -7
-46 -15 -84 -17 -58 -3 -71 -8 -87 -29 -11 -13 -23 -29 -29 -36 -5 -7 -10 -17
-10 -23 0 -5 -4 -10 -8 -10 -9 0 -30 -49 -44 -105 -15 -59 -13 -178 5 -223 14
-34 21 -39 69 -51 29 -8 58 -17 63 -21 35 -27 220 -88 248 -82 4 1 36 -5 69
-14 39 -10 82 -14 117 -10 31 3 106 9 166 13 116 9 135 16 174 57 13 14 39 28
57 32 54 10 100 69 108 138 6 46 4 61 -8 75 -9 10 -23 40 -32 67 -19 57 -35
78 -72 93 -15 7 -47 39 -72 72 -70 94 -79 99 -179 99 -99 1 -161 12 -177 34
-14 20 -71 20 -104 1z m385 -179 c41 -17 44 -31 13 -57 -26 -21 -51 -24 -79
-9 -24 13 -25 56 -1 69 23 14 27 13 67 -3z m-175 -120 c0 -8 5 -16 12 -18 20
-7 0 -37 -34 -51 -18 -8 -65 -15 -104 -16 -67 -2 -71 -1 -82 24 -19 41 -15 45
41 46 28 0 68 6 87 13 48 19 80 19 80 2z m50 -168 c0 -7 -16 -24 -35 -36 -26
-18 -41 -22 -64 -17 -51 11 -37 51 19 58 67 8 80 7 80 -5z"/>
<path d="M828 8816 c-14 -10 -18 -28 -18 -74 0 -81 -12 -112 -44 -112 -31 0
-73 -58 -105 -146 -31 -84 -39 -350 -14 -467 16 -73 16 -80 0 -107 -9 -15 -17
-37 -17 -48 0 -12 -4 -23 -9 -26 -5 -4 -9 -46 -8 -94 2 -65 7 -95 19 -115 10
-14 18 -40 18 -57 0 -16 4 -30 9 -30 5 0 11 -17 14 -37 8 -58 36 -172 47 -193
5 -10 10 -31 10 -46 0 -56 56 -210 86 -234 7 -7 14 -18 14 -24 0 -7 12 -23 26
-37 14 -13 32 -38 40 -55 16 -33 98 -124 112 -124 4 0 29 -28 54 -62 68 -92
301 -306 402 -370 6 -4 63 -32 126 -63 l115 -56 114 6 c63 4 119 11 125 16 87
68 167 145 181 176 10 21 34 60 53 87 60 85 62 96 57 289 -4 166 -6 179 -30
228 -20 39 -25 60 -20 85 6 34 -10 114 -23 114 -7 0 -21 27 -42 85 -6 17 -13
52 -15 78 -2 27 -13 66 -24 88 -25 47 -27 94 -6 103 9 3 15 18 15 40 0 26 -11
47 -45 87 -46 54 -65 99 -65 156 0 23 -20 62 -75 142 -41 60 -81 126 -89 145
-8 20 -20 36 -25 36 -12 0 -112 98 -126 124 -8 13 -26 20 -65 24 -59 5 -105
34 -180 113 -19 20 -46 40 -60 44 -31 9 -57 29 -165 123 -91 78 -104 82 -175
57 -24 -8 -50 -13 -59 -10 -9 3 -32 38 -51 78 -36 74 -52 86 -82 63z m312
-438 c25 -24 51 -57 57 -73 6 -17 19 -52 29 -80 10 -27 30 -63 44 -80 35 -40
110 -209 105 -234 -6 -32 -14 -41 -37 -41 -22 0 -58 26 -58 43 0 5 -11 23 -25
41 -35 43 -36 45 -69 106 -16 30 -42 69 -57 87 -15 18 -37 54 -49 80 -11 26
-27 54 -35 63 -8 8 -17 33 -20 55 -6 32 -2 46 15 68 25 32 34 29 100 -35z
m-275 -8 c10 -11 19 -37 21 -57 7 -92 42 -251 64 -292 5 -10 12 -44 15 -77 l7
-61 -39 -16 c-44 -17 -90 -12 -97 12 -3 9 -6 48 -7 86 -1 39 -7 76 -12 83 -6
8 -5 17 2 26 8 9 8 27 0 67 -11 55 -13 224 -3 240 9 15 30 10 49 -11z m910
-261 c8 -35 3 -44 -20 -35 -19 7 -29 31 -21 51 10 26 34 16 41 -16z m-692
-487 c35 -41 46 -121 25 -178 -9 -25 -8 -47 2 -100 7 -38 15 -94 17 -125 l5
-56 -29 4 c-22 4 -34 15 -51 46 -12 23 -22 52 -22 64 0 13 -9 50 -21 83 -14
42 -19 76 -16 112 2 29 1 62 -4 74 -5 15 0 32 19 61 27 42 47 46 75 15z m411
-143 c14 -17 29 -43 32 -57 3 -15 7 -32 9 -39 8 -26 -47 -62 -70 -45 -12 7
-58 86 -68 113 -8 24 20 59 48 59 14 0 34 -12 49 -31z m-266 -28 c7 -4 20 -30
28 -56 8 -27 32 -77 54 -111 44 -66 60 -110 60 -161 l0 -32 -52 5 c-64 7 -93
34 -103 96 -4 24 -11 48 -15 53 -4 6 -14 45 -20 88 -17 103 2 148 48 118z
m601 -147 c16 -36 5 -64 -25 -64 -25 0 -44 30 -44 71 0 31 54 26 69 -7z m-111
-116 c17 -17 15 -63 -4 -79 -14 -12 -20 -9 -40 16 -24 30 -30 55 -17 68 11 11
48 8 61 -5z m-245 -180 c9 -11 17 -28 17 -37 0 -37 29 -125 44 -133 10 -6 16
-22 16 -43 0 -54 -31 -46 -107 28 l-65 63 -4 67 c-4 63 -2 68 18 77 30 11 59
3 81 -22z m525 0 c6 -13 16 -40 22 -60 6 -21 16 -40 21 -43 10 -7 12 -55 3
-79 -9 -24 -40 -19 -63 10 -21 26 -44 93 -57 160 -6 33 -6 34 28 34 26 0 37
-6 46 -22z m-130 -121 c4 -21 -25 -34 -40 -19 -8 8 -8 16 2 27 16 19 34 15 38
-8z"/>
<path d="M4153 7779 c-18 -18 3 -70 44 -110 57 -54 111 -134 129 -190 9 -28
27 -66 40 -85 13 -19 24 -39 24 -44 0 -14 70 -184 78 -190 13 -9 49 -93 72
-165 25 -82 35 -196 19 -226 -24 -45 13 -89 61 -74 22 7 80 122 80 158 0 12
-11 45 -25 72 -13 28 -25 60 -25 72 0 12 -22 68 -50 124 -27 56 -50 108 -50
115 0 7 -11 25 -24 41 -13 15 -41 62 -63 103 -84 159 -112 210 -123 222 -6 7
-32 44 -58 82 -26 39 -60 78 -77 87 -37 21 -38 22 -52 8z"/>
<path d="M5084 7645 c-4 -14 0 -52 9 -83 19 -75 22 -266 4 -318 -8 -21 -14
-76 -15 -120 0 -45 -5 -90 -10 -100 -5 -11 -13 -38 -17 -61 -4 -24 -15 -61
-26 -83 -11 -22 -22 -53 -25 -70 -4 -16 -15 -37 -25 -46 -11 -9 -19 -22 -19
-29 0 -6 -11 -17 -25 -23 -28 -13 -34 -52 -11 -71 20 -17 85 -3 105 22 9 11
26 30 39 42 31 31 82 129 82 159 0 14 5 28 11 32 6 3 9 19 6 34 -4 15 0 35 7
46 12 17 26 206 28 389 1 143 -56 305 -108 305 -2 0 -6 -11 -10 -25z"/>
<path d="M3590 7541 c0 -11 23 -45 52 -76 28 -31 68 -79 89 -106 64 -87 153
-188 170 -194 9 -3 19 -14 22 -25 3 -11 13 -23 24 -26 10 -4 41 -30 68 -58 28
-28 67 -66 88 -84 21 -18 35 -37 33 -41 -3 -4 7 -23 22 -41 27 -32 29 -32 65
-21 50 17 63 43 42 86 -8 19 -21 38 -29 42 -7 4 -15 16 -19 25 -3 10 -27 28
-52 40 -27 13 -45 29 -45 39 0 22 -18 35 -87 69 -59 28 -163 114 -163 135 0 7
-28 39 -62 72 -35 33 -88 87 -118 121 -57 65 -100 83 -100 43z"/>
<path d="M3937 6260 c-14 -11 -34 -20 -44 -20 -10 0 -40 -18 -67 -40 -26 -22
-52 -40 -56 -40 -5 0 -16 -8 -26 -17 -9 -10 -38 -25 -63 -33 -59 -19 -65 -49
-21 -98 28 -31 33 -32 79 -26 42 5 52 12 82 52 51 67 102 112 161 141 60 29
68 47 38 79 -26 27 -50 28 -83 2z"/>
<path d="M5557 6253 c-11 -10 -8 -53 4 -53 15 0 113 -84 190 -162 36 -38 69
-68 74 -68 4 0 23 -11 41 -25 27 -21 38 -24 54 -15 27 14 25 25 -10 87 -19 33
-44 59 -70 74 -22 13 -47 33 -55 46 -9 13 -23 23 -33 23 -10 0 -50 23 -89 50
-68 48 -92 58 -106 43z"/>
<path d="M4177 6214 c-22 -12 -27 -21 -25 -41 4 -36 23 -39 206 -42 84 -1 162
-5 175 -10 36 -13 137 -5 154 12 21 21 8 76 -20 87 -12 4 -47 5 -77 2 -79 -8
-191 -8 -295 0 -73 6 -95 5 -118 -8z"/>
</g>
</svg>
