<?xml version="1.0" encoding="utf-8"?>
<!-- Generator: Adobe Illustrator 24.0.1, SVG Export Plug-In . SVG Version: 6.00 Build 0)  -->
<svg version="1.1" id="레이어_1" xmlns="http://www.w3.org/2000/svg" xmlns:xlink="http://www.w3.org/1999/xlink" x="0px"
	 y="0px" viewBox="0 0 221.3 221.3" style="enable-background:new 0 0 221.3 221.3;" xml:space="preserve">
<style type="text/css">
	.st0{fill:#FFFFFF;}
</style>
<g>
	<polygon class="st0" points="135.9,11.6 218.5,87.7 205.9,99.3 123.3,23.2 	"/>
	<polygon class="st0" points="98,23.2 15.4,99.3 2.8,87.6 85.4,11.5 	"/>
	<polygon class="st0" points="205.9,99.3 218.4,110.9 205.9,122.5 193.3,110.9 	"/>
	<polygon class="st0" points="110.7,11.6 123.3,23.2 110.7,34.8 98.1,23.2 	"/>
	<polygon class="st0" points="110.7,34.8 123.3,46.4 110.7,58 98.1,46.4 	"/>
	<polygon class="st0" points="110.7,58 123.3,69.6 37.2,148.9 24.6,137.3 	"/>
	<polygon class="st0" points="98.1,69.6 110.7,58 197.7,138.2 185.2,149.8 	"/>
	<polygon class="st0" points="15.4,122.5 2.8,110.9 15.4,99.3 28,110.9 	"/>
	<polygon class="st0" points="85.4,209.7 2.8,133.6 15.4,122 98,198.1 	"/>
	<polygon class="st0" points="123.3,198.1 205.9,122 218.5,133.7 135.9,209.8 	"/>
	<polygon class="st0" points="110.6,209.7 98,198.1 110.6,186.5 123.2,198.1 	"/>
	<polygon class="st0" points="110.6,186.5 98,174.9 110.6,163.3 123.2,174.9 	"/>
	<polygon class="st0" points="110.6,163.3 98,151.7 184.1,72.4 196.7,84 	"/>
	<polygon class="st0" points="123.2,151.7 110.6,163.3 23.6,83.1 36.1,71.5 	"/>
</g>
</svg>
