<?xml version="1.0" encoding="utf-8"?>
<!-- Generator: Adobe Illustrator 24.0.1, SVG Export Plug-In . SVG Version: 6.00 Build 0)  -->
<svg version="1.1" id="레이어_1" xmlns="http://www.w3.org/2000/svg" xmlns:xlink="http://www.w3.org/1999/xlink" x="0px"
	 y="0px" viewBox="0 0 100 100" style="enable-background:new 0 0 100 100;" xml:space="preserve">
<style type="text/css">
	.st0{fill:#F4A360;}
	.st1{fill:#82492C;}
	.st2{clip-path:url(#SVGID_2_);}
	.st3{fill:#FFFFFF;}
</style>
<g>
	<g>
		<circle class="st0" cx="26.6" cy="24.9" r="10.2"/>
		<circle class="st1" cx="26.6" cy="24.9" r="5.7"/>
		<circle class="st0" cx="73.4" cy="24.9" r="10.2"/>
		<circle class="st1" cx="73.4" cy="24.9" r="5.7"/>
	</g>
	<g>
		<defs>
			<path id="SVGID_1_" d="M81.4,55.9c0.3-1.9,0.5-3.9,0.5-5.9c0-18.3-14.3-33.2-31.9-33.2S18.1,31.7,18.1,50c0,2,0.2,4,0.5,5.9
				c-1.2,2.3-1.9,4.8-1.9,7.3c0,12.2,14.9,22,33.3,22c18.4,0,33.3-9.9,33.3-22C83.3,60.7,82.6,58.2,81.4,55.9z"/>
		</defs>
		<use xlink:href="#SVGID_1_"  style="overflow:visible;fill:#F4A360;"/>
		<clipPath id="SVGID_2_">
			<use xlink:href="#SVGID_1_"  style="overflow:visible;"/>
		</clipPath>
		<g class="st2">
			<path class="st1" d="M50.2,32.9h-0.4c-1,0-1.8-0.8-1.8-1.8V15.4c0-1,0.8-1.8,1.8-1.8h0.4c1,0,1.8,0.8,1.8,1.8v15.7
				C52,32.1,51.2,32.9,50.2,32.9z"/>
			<g>
				<path class="st1" d="M54.9,29.7h-9.8c-0.9,0-1.6-0.7-1.6-1.6v-0.3c0-0.9,0.7-1.6,1.6-1.6h9.8c0.9,0,1.6,0.7,1.6,1.6v0.3
					C56.5,29,55.8,29.7,54.9,29.7z"/>
				<path class="st1" d="M54.9,23.9h-9.8c-0.9,0-1.6-0.7-1.6-1.6V22c0-0.9,0.7-1.6,1.6-1.6h9.8c0.9,0,1.6,0.7,1.6,1.6v0.3
					C56.5,23.2,55.8,23.9,54.9,23.9z"/>
			</g>
			<g>
				<path class="st1" d="M26.9,57.5L18.7,56c-1-0.2-1.7-1.2-1.5-2.2l0.1-0.4c0.2-1,1.2-1.7,2.2-1.5l8.2,1.5c1,0.2,1.7,1.2,1.5,2.2
					L29.1,56C28.9,57,27.9,57.7,26.9,57.5z"/>
				<path class="st1" d="M26,64.2L14.1,62c-1-0.2-1.7-1.2-1.5-2.2l0.1-0.4c0.2-1,1.2-1.7,2.2-1.5l11.8,2.2c1,0.2,1.7,1.2,1.5,2.2
					l-0.1,0.4C28,63.8,27,64.4,26,64.2z"/>
				<path class="st1" d="M73.1,57.6l8.2-1.6c1-0.2,1.7-1.2,1.5-2.2l-0.1-0.4c-0.2-1-1.2-1.7-2.2-1.5l-8.2,1.6
					c-1,0.2-1.7,1.2-1.5,2.2l0.1,0.4C71.1,57.1,72.1,57.8,73.1,57.6z"/>
				<path class="st1" d="M74,64.3L85.9,62c1-0.2,1.7-1.2,1.5-2.2l-0.1-0.4c-0.2-1-1.2-1.7-2.2-1.5l-11.8,2.3c-1,0.2-1.7,1.2-1.5,2.2
					l0.1,0.4C72,63.8,73,64.5,74,64.3z"/>
			</g>
		</g>
	</g>
	<g>
		<g>
			<ellipse class="st3" cx="44.9" cy="54.6" rx="6.6" ry="5.8"/>
			<ellipse class="st3" cx="55.1" cy="54.6" rx="6.6" ry="5.8"/>
		</g>
		<g>
			<circle class="st1" cx="44.7" cy="51.7" r="0.6"/>
			<circle class="st1" cx="44.7" cy="57.1" r="0.6"/>
			<circle class="st1" cx="42.4" cy="54.8" r="0.6"/>
			<circle class="st1" cx="46.9" cy="54.8" r="0.6"/>
			<circle class="st1" cx="55.4" cy="51.7" r="0.6"/>
			<circle class="st1" cx="55.4" cy="57.1" r="0.6"/>
			<circle class="st1" cx="53.1" cy="54.8" r="0.6"/>
			<circle class="st1" cx="57.6" cy="54.8" r="0.6"/>
		</g>
	</g>
	<rect x="49.3" y="51.7" class="st1" width="1.3" height="12.9"/>
	<rect x="42.7" y="63.7" class="st1" width="14.7" height="1.2"/>
	<path class="st1" d="M47.8,48.9h4.5c1.5,0,2.3,1.8,1.2,2.9l-2.2,2.3c-0.7,0.7-1.8,0.7-2.4,0l-2.2-2.3
		C45.5,50.7,46.3,48.9,47.8,48.9z"/>
	<g>
		<g>
			<g>
				<circle class="st1" cx="43.3" cy="45.8" r="2.5"/>
				<circle class="st3" cx="44.5" cy="46.3" r="1.2"/>
			</g>
		</g>
		<ellipse transform="matrix(0.1826 -0.9832 0.9832 0.1826 -3.5872 76.0075)" class="st1" cx="43.9" cy="40.2" rx="0.8" ry="1.6"/>
		<g>
			<g>
				<circle class="st1" cx="56.7" cy="45.8" r="2.5"/>
				<circle class="st3" cx="55.5" cy="46.3" r="1.2"/>
			</g>
		</g>
		<ellipse transform="matrix(0.9832 -0.1826 0.1826 0.9832 -6.3914 10.9173)" class="st1" cx="56.1" cy="40.2" rx="1.6" ry="0.8"/>
	</g>
</g>
</svg>
