<?xml version="1.0" encoding="utf-8"?>
<!-- Generator: Adobe Illustrator 24.0.1, SVG Export Plug-In . SVG Version: 6.00 Build 0)  -->
<svg version="1.1" id="레이어_1" xmlns="http://www.w3.org/2000/svg" xmlns:xlink="http://www.w3.org/1999/xlink" x="0px"
	 y="0px" viewBox="0 0 100 100" style="enable-background:new 0 0 100 100;" xml:space="preserve">
<style type="text/css">
	.st0{fill:#9C6743;}
	.st1{fill:#CEA17B;}
	.st2{fill:#7A4F31;}
	.st3{clip-path:url(#SVGID_2_);fill:#CEA17B;}
	.st4{fill:#6E5849;}
	.st5{fill:#FFFFFF;}
	.st6{fill:#F2A2A2;}
	.st7{fill:#EA9E9E;}
</style>
<g>
	<g>
		<g>
			<path class="st0" d="M37.1,43.7c0,0-2.2-10.4-15.1-9.9c0,0-3.9,12.9,7,17S37.1,43.7,37.1,43.7z"/>
			<path class="st1" d="M34.5,43.5c0,0-2.2-6.6-10.3-7c0,0-2.4,9.3,5.1,12.4S34.5,43.5,34.5,43.5z"/>
		</g>
		<path class="st2" d="M38.8,41.3c0,0-9.7-18.9-7.2-32.2c0,0,2.7-2.8,3.4,1.7c0,0-0.4,4.7,0,8c0,0,1.1-1.3,5.5-2.9
			c0,0,1.8,0.8,0.8,2.6c0,0-5.1,1.8-5.9,3.4c0,0,0.4,2.2,1,3.9c0,0,4.9-3.4,7.4-3.3c0,0,1.5,0.5,0.9,2.2c0,0-5.5,1.4-7.3,3.7
			c0,0,2,9.7,4,11.2C43.4,41.3,38.8,41.3,38.8,41.3z"/>
		<g>
			<path class="st0" d="M66.3,43.7c0,0,2.2-10.4,15.1-9.9c0,0,3.9,12.9-7,17S66.3,43.7,66.3,43.7z"/>
			<path class="st1" d="M68.9,43.5c0,0,2.2-6.6,10.3-7c0,0,2.4,9.3-5.1,12.4S68.9,43.5,68.9,43.5z"/>
		</g>
		<path class="st2" d="M64.6,41.3c0,0,9.7-18.9,7.2-32.2c0,0-2.7-2.8-3.4,1.7c0,0,0.4,4.7,0,8c0,0-1.1-1.3-5.5-2.9
			c0,0-1.8,0.8-0.8,2.6c0,0,5.1,1.8,5.9,3.4c0,0-0.4,2.2-1,3.9c0,0-4.9-3.4-7.4-3.3c0,0-1.5,0.5-0.9,2.2c0,0,5.5,1.4,7.3,3.7
			c0,0-2,9.7-4,11.2C60.1,41.3,64.6,41.3,64.6,41.3z"/>
	</g>
	<g>
		<g>
			<defs>
				<path id="SVGID_1_" d="M78.3,62.2c0-14.7-11.9-26.6-26.6-26.6c-14.7,0-26.6,11.9-26.6,26.6c0,3.3,0.6,6.5,1.7,9.5
					c-1.1,1.6-1.7,3.4-1.7,5.3c0,8.1,11.9,14.7,26.6,14.7c14.7,0,26.6-6.6,26.6-14.7c0-1.9-0.6-3.6-1.7-5.3
					C77.6,68.7,78.3,65.5,78.3,62.2z"/>
			</defs>
			<use xlink:href="#SVGID_1_"  style="overflow:visible;fill:#9C6743;"/>
			<clipPath id="SVGID_2_">
				<use xlink:href="#SVGID_1_"  style="overflow:visible;"/>
			</clipPath>
			<path class="st3" d="M62.8,47.7c-9.9,0-8.3,18.9-11,20.9c-2.7-2-1.8-20.9-11-20.9c-10.2,0-16.7,10.7-16.7,23.9
				s8.3,23.9,18.5,23.9c3.4,0,6.5-1.2,9.2-3.2c2.7,2,5.9,3.2,9.2,3.2c10.2,0,18.5-10.7,18.5-23.9S73,47.7,62.8,47.7z"/>
		</g>
		<ellipse class="st4" cx="51.7" cy="69.8" rx="3.6" ry="2.4"/>
		<path class="st4" d="M51.7,75.5c-0.2,0-0.4-0.2-0.4-0.4v-4.2c0-0.2,0.2-0.4,0.4-0.4c0.2,0,0.4,0.2,0.4,0.4V75
			C52.1,75.3,52,75.5,51.7,75.5z"/>
		<path class="st4" d="M49.2,76.7c-1.3,0-2.4-0.4-2.5-0.4c-0.2-0.1-0.4-0.3-0.3-0.6c0.1-0.2,0.3-0.4,0.6-0.3c0,0,3.4,1.2,4.3-0.6
			l0.5-1.1l0.3,1.1l0,0c0,0,0.5,1.3,4.3,0.4c0.2-0.1,0.5,0.1,0.5,0.3c0.1,0.2-0.1,0.5-0.3,0.5c-3,0.8-4.4,0.2-5-0.4
			C51.1,76.5,50.1,76.7,49.2,76.7z"/>
	</g>
	<g>
		<g>
			<circle class="st4" cx="42.2" cy="66.3" r="3.5"/>
			<circle class="st5" cx="44" cy="66" r="1.4"/>
			<ellipse class="st6" cx="37.9" cy="73.5" rx="3.9" ry="2.7"/>
		</g>
		<g>
			<circle class="st4" cx="61.2" cy="66.3" r="3.5"/>
			<circle class="st5" cx="59.4" cy="66" r="1.4"/>
			<ellipse class="st6" cx="65.5" cy="73.5" rx="3.9" ry="2.7"/>
		</g>
	</g>
	<g>
		<path class="st4" d="M48.1,76.3c0,0,1.3,5.3,3.6,5.5c0,0,1.9-0.3,3.2-5.5c0,0-2.2,0.1-3.2-1.1C51.7,75.1,50.8,76.6,48.1,76.3z"/>
		<path class="st4" d="M51.7,82.2L51.7,82.2c-2.6-0.3-3.9-5.3-4.1-5.9l-0.1-0.6l0.6,0.1c2.4,0.2,3.2-0.9,3.2-0.9l0.3-0.5l0.4,0.5
			c0.9,1.1,2.8,1,2.8,1l0.6,0l-0.2,0.6C54,81.7,52,82.2,51.7,82.2L51.7,82.2z M48.7,76.8c0.5,1.6,1.6,4.3,3,4.6
			c0.3-0.1,1.6-0.8,2.7-4.6c-0.7,0-1.8-0.2-2.6-0.9C51.3,76.2,50.3,76.8,48.7,76.8z"/>
	</g>
	<g>
		<path class="st7" d="M49.4,78.7c0.7-0.1,2.4-0.4,4.3,0c0.1,0,0.2,0.2,0.2,0.4c-0.3,0.7-1.2,2.5-2.1,2.8c-1,0.3-2.1-1.9-2.5-2.8
			C49.1,78.9,49.2,78.7,49.4,78.7z"/>
		<path class="st4" d="M51.5,82.3c-1.1,0-2.1-1.6-2.7-3c-0.1-0.2-0.1-0.4,0-0.6c0.1-0.2,0.3-0.3,0.5-0.4l0,0c0.7-0.1,2.5-0.4,4.5,0
			c0.2,0,0.4,0.2,0.5,0.4c0.1,0.2,0.1,0.4,0,0.6c-0.4,1-1.3,2.7-2.4,3C51.7,82.2,51.6,82.3,51.5,82.3z M49.7,79.1
			c0.8,1.6,1.5,2.4,1.9,2.3c0.5-0.1,1.2-1,1.8-2.3C51.8,78.8,50.4,78.9,49.7,79.1z M53.4,78.9L53.4,78.9L53.4,78.9z"/>
	</g>
</g>
</svg>
