<?xml version="1.0" encoding="utf-8"?>
<!-- Generator: Adobe Illustrator 24.0.1, SVG Export Plug-In . SVG Version: 6.00 Build 0)  -->
<svg version="1.1" id="레이어_1" xmlns="http://www.w3.org/2000/svg" xmlns:xlink="http://www.w3.org/1999/xlink" x="0px"
	 y="0px" viewBox="0 0 100 100" style="enable-background:new 0 0 100 100;" xml:space="preserve">
<style type="text/css">
	.st0{fill:#B0B2B5;}
	.st1{fill:#FFBDBD;}
	.st2{fill:#B8BCC1;}
	.st3{fill:#565656;}
</style>
<g>
	<g>
		<g>
			<path class="st0" d="M39.8,34.6c0,0-2-15.3-16.6-13.6C8.7,22.7-3.6,47.4,6.8,47.1c0,0-1.5,7.2,3.8,4.3c0,0-1.5,7.2,4.2,3.4
				c0,0-0.9,6.8,5,2.5c0.2-0.1-0.3,0.3-0.3,1.6c0.1,2.4,2.4,2.9,4.2,1.1c2.7-2.6,4.3-7.7,5.4-12.9C34.7,40.8,39.8,34.6,39.8,34.6z"
				/>
			<path class="st1" d="M31,31.2c0,0-9.1-3.6-13.6,5.2s7.1,13,7.1,13L31,31.2z"/>
		</g>
		<g>
			<path class="st0" d="M60.2,34.6c0,0,2-15.3,16.6-13.6c14.5,1.7,26.8,26.4,16.4,26.2c0,0,1.5,7.2-3.8,4.3c0,0,1.5,7.2-4.2,3.4
				c0,0,0.9,6.8-5,2.5c-0.2-0.1,0.3,0.3,0.3,1.6c-0.1,2.4-2.4,2.9-4.2,1.1c-2.7-2.6-4.3-7.7-5.4-12.9C65.3,40.8,60.2,34.6,60.2,34.6
				z"/>
			<path class="st1" d="M69,31.2c0,0,9.1-3.6,13.6,5.2s-7.1,13-7.1,13L69,31.2z"/>
		</g>
	</g>
	<path class="st2" d="M60.1,79.1H39.9c-12.1,0-21.6-10.5-20.3-22.6l0.6-5.5C21.8,35.8,34.6,24.2,50,24.2l0,0
		c15.4,0,28.2,11.6,29.8,26.9l0.6,5.5C81.7,68.6,72.2,79.1,60.1,79.1z"/>
	<path class="st3" d="M50.6,60.5h-1.2c-2.2,0-3.9-2-3.5-4.2l0.6-3c0.3-1.7,1.8-2.4,3.5-2.4l0,0c1.7,0,3.2,0.7,3.5,2.4l0.6,3
		C54.5,58.5,52.8,60.5,50.6,60.5z"/>
	<g>
		<path class="st3" d="M45.1,64.3c-0.7,0-1.2-0.1-1.3-0.1c-0.5-0.1-0.9-0.6-0.9-1.1c0.1-0.5,0.6-0.9,1.1-0.9
			c0.8,0.1,3.2,0.2,4.2-0.7c0.3-0.3,0.4-0.6,0.4-1c0-0.6,0.4-1,1-1s1,0.4,1,1c0,1-0.4,1.9-1.1,2.5C48.3,64.1,46.4,64.3,45.1,64.3z"
			/>
		<path class="st3" d="M54.9,64.3c-1.3,0-3.2-0.2-4.4-1.3c-0.7-0.6-1.1-1.5-1.1-2.5c0-0.6,0.4-1,1-1c0.6,0,1,0.4,1,1
			c0,0.4,0.1,0.7,0.4,1c1,0.9,3.4,0.8,4.2,0.7c0.6-0.1,1,0.3,1.1,0.9c0.1,0.5-0.3,1-0.9,1.1C56.1,64.2,55.6,64.3,54.9,64.3z"/>
	</g>
	<g>
		<path class="st1" d="M34.2,57.7h-4c-1.5,0-2.7-1.2-2.7-2.7v-0.2c0-1.5,1.2-2.7,2.7-2.7h4c1.5,0,2.7,1.2,2.7,2.7V55
			C36.9,56.5,35.7,57.7,34.2,57.7z"/>
		<path class="st1" d="M69.7,57.7h-4c-1.5,0-2.7-1.2-2.7-2.7v-0.2c0-1.5,1.2-2.7,2.7-2.7h4c1.5,0,2.7,1.2,2.7,2.7V55
			C72.4,56.5,71.2,57.7,69.7,57.7z"/>
	</g>
	<g>
		<circle class="st3" cx="39.8" cy="46.9" r="2.1"/>
		<circle class="st3" cx="60.2" cy="46.9" r="2.1"/>
	</g>
</g>
</svg>
