<?xml version="1.0" encoding="utf-8"?>
<!-- Generator: Adobe Illustrator 24.0.1, SVG Export Plug-In . SVG Version: 6.00 Build 0)  -->
<svg version="1.1" id="레이어_1" xmlns="http://www.w3.org/2000/svg" xmlns:xlink="http://www.w3.org/1999/xlink" x="0px"
	 y="0px" viewBox="0 0 100 100" style="enable-background:new 0 0 100 100;" xml:space="preserve">
<style type="text/css">
	.st0{fill:#ECDEDE;}
	.st1{fill:#040000;}
	.st2{fill:#EB9494;}
</style>
<g>
	<g>
		<g>
			<path id="SVGID_1_" class="st0" d="M80.8,41.5C84.8,18.1,82,16,82,16c-6.6,1.5-13.3,7.1-16.9,10.8C60.9,25,55.5,24,49.1,24
				c0,0-6.8-0.3-14.2,2.6C31.1,23,24.6,17.4,18,16c0,0-2.7,2,1.1,25.1c-2.1,4.5-3.4,10.3-3.2,17.6c0,0-1,25.5,34.7,25.5
				S84,59.8,84,59.8S85,50.6,80.8,41.5z"/>
		</g>
	</g>
	<g>
		<g>
			<path class="st1" d="M47.7,56.9c-0.4,0-0.6,0-0.4,0.4c0.2,0.6,2.1,2.9,2.1,2.9c0.5-0.6,1.6-2.3,2.1-2.9c0.2-0.4,0.1-0.4-0.4-0.4
				H47.7L47.7,56.9z"/>
			<path class="st1" d="M49.4,60.9l-0.3-0.4c-0.2-0.2-1.9-2.4-2.2-3c0-0.1-0.2-0.4-0.1-0.7c0.2-0.3,0.5-0.3,0.8-0.3h3.4
				c0.4,0,0.7,0,0.9,0.3c0.2,0.3,0,0.6-0.1,0.7c-0.3,0.3-0.7,0.9-1.1,1.5c-0.4,0.6-0.8,1.2-1.1,1.5L49.4,60.9z M47.7,57.3
				c0.3,0.5,1,1.5,1.6,2.3c0.2-0.3,0.5-0.7,0.7-1c0.3-0.5,0.6-0.9,0.9-1.2H47.7z"/>
		</g>
		<path class="st1" d="M56.6,67.3c-1,0-3.9-0.2-5.9-2.1c-0.6-0.5-1-1.1-1.3-1.8c-0.3,0.7-0.7,1.2-1.3,1.7c-2.4,2.3-6.1,2.1-6.3,2.1
			l0.1-1.6c0,0,3.2,0.1,5.1-1.7c0.9-0.9,1.4-2.1,1.4-3.6v-0.8h2v0.8c0,1.5,0.5,2.8,1.4,3.6c1.9,1.8,5,1.6,5,1.6l0.1,1.6
			C56.9,67.3,56.8,67.3,56.6,67.3z"/>
		<path class="st1" d="M38.5,55.6h-0.2c-0.8,0-1.5-0.6-1.5-1.5V51c0-0.8,0.6-1.5,1.5-1.5h0.2c0.8,0,1.5,0.6,1.5,1.5v3.2
			C40,54.9,39.3,55.6,38.5,55.6z"/>
		<path class="st1" d="M61,55.6h-0.2c-0.8,0-1.5-0.6-1.5-1.5V51c0-0.8,0.6-1.5,1.5-1.5H61c0.8,0,1.5,0.6,1.5,1.5v3.2
			C62.6,54.9,61.9,55.6,61,55.6z"/>
		<path class="st2" d="M37.1,63.8h-5.3c-1.9,0-3.6-1.6-3.6-3.6l0,0c0-1.9,1.6-3.6,3.6-3.6h5.3c1.9,0,3.6,1.6,3.6,3.6l0,0
			C40.7,62.3,39,63.8,37.1,63.8z"/>
		<path class="st2" d="M68.1,63.8h-5.3c-1.9,0-3.6-1.6-3.6-3.6l0,0c0-1.9,1.6-3.6,3.6-3.6h5.3c1.9,0,3.6,1.6,3.6,3.6l0,0
			C71.6,62.3,70.1,63.8,68.1,63.8z"/>
	</g>
</g>
<path class="st2" d="M22.4,24c0,0,0.1,5.8,1.4,12.1l7-5.6C30.9,30.6,25,24.8,22.4,24z"/>
<path class="st2" d="M77.8,24c0,0-0.1,5.8-1.4,12.1l-7-5.6C69.4,30.6,75.3,24.8,77.8,24z"/>
<g>
	<g>
		<path d="M22.3,59.1h-8.7c-0.3,0-0.5-0.2-0.5-0.5s0.2-0.5,0.5-0.5h8.7c0.3,0,0.5,0.2,0.5,0.5S22.6,59.1,22.3,59.1z"/>
		<path d="M14.3,65.6c-0.2,0-0.4-0.1-0.5-0.3c-0.1-0.3,0-0.5,0.3-0.6l8-3c0.3-0.1,0.5,0,0.6,0.3c0.1,0.3,0,0.5-0.3,0.6l-8,3
			C14.4,65.6,14.4,65.6,14.3,65.6z"/>
	</g>
	<g>
		<path d="M86.4,59.1h-8.7c-0.3,0-0.5-0.2-0.5-0.5s0.2-0.5,0.5-0.5h8.7c0.3,0,0.5,0.2,0.5,0.5S86.7,59.1,86.4,59.1z"/>
		<path d="M85.7,65.6c-0.1,0-0.1,0-0.2,0l-8-3c-0.3-0.1-0.4-0.4-0.3-0.6c0.1-0.3,0.4-0.4,0.6-0.3l8,3c0.3,0.1,0.4,0.4,0.3,0.6
			C86.1,65.4,85.9,65.6,85.7,65.6z"/>
	</g>
</g>
</svg>
