<?xml version="1.0" encoding="utf-8"?>
<!-- Generator: Adobe Illustrator 24.0.1, SVG Export Plug-In . SVG Version: 6.00 Build 0)  -->
<svg version="1.1" id="레이어_1" xmlns="http://www.w3.org/2000/svg" xmlns:xlink="http://www.w3.org/1999/xlink" x="0px"
	 y="0px" viewBox="0 0 221.3 221.3" style="enable-background:new 0 0 221.3 221.3;" xml:space="preserve">
<style type="text/css">
	.st0{fill:#FFFFFF;}
</style>
<g>
	<rect x="44" y="3.3" class="st0" width="133.3" height="20.4"/>
	<rect x="3.2" y="44" class="st0" width="20.4" height="133.3"/>
	<rect x="177.3" y="23.7" class="st0" width="20.3" height="20.3"/>
	<rect x="23.7" y="23.7" class="st0" width="20.3" height="20.3"/>
	<rect x="44" y="197.7" class="st0" width="133.3" height="20.4"/>
	<rect x="197.7" y="44" class="st0" width="20.4" height="133.3"/>
	<rect x="177.4" y="177.4" class="st0" width="20.3" height="20.3"/>
	<rect x="23.6" y="177.4" class="st0" width="20.3" height="20.3"/>
</g>
<g>
	<g>
		<rect x="62.8" y="62.7" class="st0" width="20.6" height="20.8"/>
		<g>
			<rect x="58.4" y="68.2" class="st0" width="9.8" height="9.8"/>
			<rect x="78" y="68.2" class="st0" width="9.8" height="9.8"/>
		</g>
		<rect x="68.2" y="58.5" class="st0" width="9.8" height="29.2"/>
	</g>
	<g>
		<rect x="100.4" y="62.7" class="st0" width="20.6" height="20.8"/>
		<g>
			<rect x="95.9" y="68.2" class="st0" width="9.8" height="9.8"/>
			<rect x="115.6" y="68.2" class="st0" width="9.8" height="9.8"/>
		</g>
		<rect x="105.7" y="58.5" class="st0" width="9.8" height="29.2"/>
	</g>
	<g>
		<rect x="100.4" y="100.4" class="st0" width="20.6" height="20.8"/>
		<g>
			<rect x="95.9" y="105.9" class="st0" width="9.8" height="9.8"/>
			<rect x="115.6" y="105.9" class="st0" width="9.8" height="9.8"/>
		</g>
		<rect x="105.7" y="96.2" class="st0" width="9.8" height="29.2"/>
	</g>
	<g>
		<rect x="100.4" y="137.8" class="st0" width="20.6" height="20.8"/>
		<g>
			<rect x="95.9" y="143.3" class="st0" width="9.8" height="9.8"/>
			<rect x="115.6" y="143.3" class="st0" width="9.8" height="9.8"/>
		</g>
		<rect x="105.7" y="133.5" class="st0" width="9.8" height="29.2"/>
	</g>
	<g>
		<rect x="137.9" y="62.7" class="st0" width="20.6" height="20.8"/>
		<g>
			<rect x="133.5" y="68.2" class="st0" width="9.8" height="9.8"/>
			<rect x="153.1" y="68.2" class="st0" width="9.8" height="9.8"/>
		</g>
		<rect x="143.3" y="58.5" class="st0" width="9.8" height="29.2"/>
	</g>
</g>
</svg>
