<?xml version="1.0" encoding="utf-8"?>
<!-- Generator: Adobe Illustrator 24.0.1, SVG Export Plug-In . SVG Version: 6.00 Build 0)  -->
<svg version="1.1" id="레이어_1" xmlns="http://www.w3.org/2000/svg" xmlns:xlink="http://www.w3.org/1999/xlink" x="0px"
	 y="0px" viewBox="0 0 100 100" style="enable-background:new 0 0 100 100;" xml:space="preserve">
<style type="text/css">
	.st0{fill:#EB9494;}
	.st1{fill:#ECC7A4;}
	.st2{fill:#FFFFFF;}
	.st3{clip-path:url(#SVGID_3_);fill:#FFFFFF;}
	.st4{fill:#E8C4A2;}
	.st5{fill:#040000;}
</style>
<path class="st0" d="M22.4,24c0,0,0.1,5.8,1.4,12.1l7-5.6C30.9,30.6,25,24.8,22.4,24z"/>
<path class="st0" d="M77.8,24c0,0-0.1,5.8-1.4,12.1l-7-5.6C69.4,30.6,75.3,24.8,77.8,24z"/>
<g>
	<g>
		<path d="M22.3,59.1h-8.7c-0.3,0-0.5-0.2-0.5-0.5s0.2-0.5,0.5-0.5h8.7c0.3,0,0.5,0.2,0.5,0.5S22.6,59.1,22.3,59.1z"/>
		<path d="M14.3,65.6c-0.2,0-0.4-0.1-0.5-0.3c-0.1-0.3,0-0.5,0.3-0.6l8-3c0.3-0.1,0.5,0,0.6,0.3c0.1,0.3,0,0.5-0.3,0.6l-8,3
			C14.4,65.6,14.4,65.6,14.3,65.6z"/>
	</g>
	<g>
		<path d="M86.4,59.1h-8.7c-0.3,0-0.5-0.2-0.5-0.5s0.2-0.5,0.5-0.5h8.7c0.3,0,0.5,0.2,0.5,0.5S86.7,59.1,86.4,59.1z"/>
		<path d="M85.7,65.6c-0.1,0-0.1,0-0.2,0l-8-3c-0.3-0.1-0.4-0.4-0.3-0.6c0.1-0.3,0.4-0.4,0.6-0.3l8,3c0.3,0.1,0.4,0.4,0.3,0.6
			C86.1,65.4,85.9,65.6,85.7,65.6z"/>
	</g>
</g>
<g>
	<path class="st1" d="M36.7,27.3c0,0-2.8-7.5-11-12.8c-2.3-1.5-5.6-0.4-6.3,2.2c-2.4,8-5.8,23.9,1.5,29.9
		C30.9,54.8,43.6,40.2,36.7,27.3z"/>
	<path class="st2" d="M32.6,28c-0.8-1-2.8-3.5-5.7-5.6c-1.1-0.8-2.7-0.3-3,0.9c-1.1,3.8-2.7,11-0.3,14.6c3.3,4.5,9-4.8,9.3-8.9
		C32.9,28.6,32.7,28.2,32.6,28z"/>
	<path class="st1" d="M64.3,27.3c0,0,3.1-8.1,12.1-13.3c1.9-1.1,4.4-0.1,5,1.8c2.3,7.5,6.4,24.6-1.2,30.9
		C70.1,54.8,57.2,40.2,64.3,27.3z"/>
	<path class="st2" d="M68.7,28c0.8-1,2.8-3.5,5.7-5.6c1.1-0.8,2.7-0.3,3,0.9c1.1,3.8,2.7,11,0.3,14.6c-3.3,4.5-9-4.8-9.3-8.9
		C68.2,28.6,68.5,28.2,68.7,28z"/>
	<g>
		<g>
			<path id="SVGID_2_" class="st1" d="M49.2,21.3c0,0-18-1.2-29,17C8.9,57,7.6,80.3,40.8,85.3c0,0,4.4,0,9,0h0.7c4.5,0,9,0,9,0
				c32.7-3.6,31.8-28.6,20.6-47c-11-18.2-27.4-17-27.4-17"/>
		</g>
		<g>
			<g>
				<g>
					<g>
						<g>
							<g>
								<g>
									<g>
										<g>
											<g>
												<g>
													<g>
														<defs>
															<path id="SVGID_1_" d="M50,22.8h-0.8c0,0-18-2.7-29,15.7C8.9,57,10.3,81.1,42.1,85.1c0,0,3.1,0.4,7.7,0.4h0.7
																c4.5,0,9,0,9,0c32.4-4.3,31.8-28.5,20.6-47C69,20.3,52.6,22.8,52.6,22.8h-1.5L50,22.8L50,22.8L50,22.8z"/>
														</defs>
														<clipPath id="SVGID_3_">
															<use xlink:href="#SVGID_1_"  style="overflow:visible;"/>
														</clipPath>
														<path class="st3" d="M10.9,64.1c0,0,2.3-3.1,4.3-6.5c2.5-4.1,8.2-4.6,11.6-1.1c2.4,2.4,6.1,4.3,12.5,3.4
															c2.5-0.4,4.5-1.9,5.7-4.1c0.8-1.5,2.5-3,5.7-3c3.5,0,5,1.8,5.7,3.4c0.7,1.8,2.3,3.2,4.2,3.6c4,0.8,10,1.1,13.8-3.4
															c3-3.6,9.4-3.8,12.5-0.1c2,2.5,3.8,5.7,4.2,9.7C91.9,76.7,51.9,96,51.9,96S12,87.9,10.9,64.1z"/>
													</g>
												</g>
											</g>
										</g>
									</g>
								</g>
							</g>
						</g>
					</g>
				</g>
			</g>
		</g>
		<g>
			<path class="st4" d="M54.6,86.5h-6.5c-7.4,0-14.8-1.8-21.2-5.1c-7.7-4-12.5-9.4-14.3-15.9c-2.1-7.8,0.1-17.2,6.6-27.8
				c10.3-17.1,29.2-17.5,29.9-17.5l3.3-0.1c0,0,0,0,0,0c0.2,0,18.6,0.2,28.4,17.6c6.8,11.1,9,22.5,5.9,31.1
				c-2.6,7.1-8.4,12.3-17.4,15.3C64.7,85.7,59.7,86.5,54.6,86.5z M52.5,22.4l-3.3,0.1c-0.2,0-18.3,0.2-28,16.5
				c-6.2,10.1-8.3,18.8-6.3,26c1.6,5.9,6,10.7,13.1,14.5c6.2,3.2,13.1,4.9,20.2,4.9h6.5c4.8,0,9.5-0.8,14-2.3
				c8.3-2.8,13.7-7.5,16-14c2.9-8,0.8-18.6-5.7-29.2C69.8,22.6,52.6,22.4,52.5,22.4z"/>
		</g>
	</g>
	<path class="st5" d="M49.3,55.2h3c0,0,2-0.1,2,1.9c0,2.1-3.5,3.5-3.5,3.5S47,59,47,57.4C46.8,56.1,47.5,55.2,49.3,55.2z"/>
	<path class="st5" d="M46.2,67.7c-1.7,0-3.3-0.7-4.3-1.1c-0.4-0.2-0.8-0.4-1.1-0.4l0.4-2.2c0.5,0.1,1,0.3,1.5,0.6c2,0.9,4.5,2,7.2-1
		l1.6,1.5C49.8,67.1,47.9,67.7,46.2,67.7z"/>
	<path class="st5" d="M55.6,67.6c-1.7,0-3.6-0.6-5.4-2.6l1.6-1.6c2.8,2.9,5.3,1.8,7.2,1c0.6-0.2,1.1-0.5,1.5-0.5l0.4,2.2
		c-0.2,0-0.6,0.2-1,0.4C58.8,67,57.3,67.6,55.6,67.6z"/>
	<rect x="49.7" y="56.7" class="st5" width="2.2" height="7.9"/>
	<path class="st0" d="M29.7,60.9h4.5c0,0,2.8-0.1,2.8,3.3c0,3.4-3,3-3,3h-4.5c0,0-2.5-0.1-2.5-3C27,61.4,29.7,60.9,29.7,60.9z"/>
	<path class="st0" d="M66.2,60.9h4.5c0,0,2.8-0.1,2.8,3.3c0,3.4-3,3-3,3H66c0,0-2.5-0.1-2.5-3C63.6,61.4,66.2,60.9,66.2,60.9z"/>
	<path class="st2" d="M43,47.5h-0.7c-1.2,0-2.3-1-2.3-2.3l0,0c0-1.2,1-2.3,2.3-2.3H43c1.2,0,2.3,1,2.3,2.3l0,0
		C45.2,46.5,44.2,47.5,43,47.5z"/>
	<path class="st2" d="M59.6,47.5h-0.7c-1.2,0-2.3-1-2.3-2.3l0,0c0-1.2,1-2.3,2.3-2.3h0.7c1.2,0,2.3,1,2.3,2.3l0,0
		C61.9,46.5,60.8,47.5,59.6,47.5z"/>
	<ellipse class="st5" cx="40.5" cy="53.6" rx="2.3" ry="2.5"/>
	<ellipse class="st5" cx="61.3" cy="53.6" rx="2.3" ry="2.5"/>
</g>
</svg>
