<?xml version="1.0" encoding="utf-8"?>
<!-- Generator: Adobe Illustrator 24.0.1, SVG Export Plug-In . SVG Version: 6.00 Build 0)  -->
<svg version="1.1" id="레이어_1" xmlns="http://www.w3.org/2000/svg" xmlns:xlink="http://www.w3.org/1999/xlink" x="0px"
	 y="0px" viewBox="0 0 100 100" style="enable-background:new 0 0 100 100;" xml:space="preserve">
<style type="text/css">
	.st0{fill:#82492C;}
	.st1{fill:#EDD5C3;}
	.st2{fill:#FFFFFF;}
	.st3{fill:#FFC2C2;}
</style>
<g>
	<path class="st0" d="M95,50.3c0-7.3-5.6-13.2-12.8-13.7c1.9-2.4,3-5.3,3-8.6c0-7.6-6.2-13.7-13.7-13.7c-2.9,0-5.5,0.9-7.7,2.4
		c-1.2-6.3-6.8-11.1-13.5-11.1c-6.8,0-12.4,4.9-13.5,11.4c-2.3-1.7-5.1-2.7-8.1-2.7c-7.6,0-13.7,6.2-13.7,13.7c0,3.2,1.1,6.2,3,8.6
		C10.7,37.1,5,43.1,5,50.3c0,7.1,5.4,13,12.3,13.7c-1.6,2.2-2.5,5-2.5,7.9c0,7.6,6.2,13.7,13.7,13.7c3,0,5.8-1,8.1-2.7
		c1.1,6.5,6.8,11.4,13.5,11.4c6.7,0,12.3-4.8,13.5-11.1c2.2,1.5,4.9,2.4,7.7,2.4c7.6,0,13.7-6.2,13.7-13.7c0-3-0.9-5.7-2.5-7.9
		C89.6,63.3,95,57.4,95,50.3z M42.1,69.6c-1-6-6-10.7-12.1-11.3c1.6-2.2,2.5-5,2.5-7.9c0-3.2-1.1-6.2-3-8.6
		c6.4-0.4,11.5-5.2,12.6-11.4c2.3,1.7,5.1,2.7,8.1,2.7c2.9,0,5.5-0.9,7.7-2.4c1.2,6,6.3,10.7,12.5,11.1c-1.9,2.4-3,5.3-3,8.6
		c0,3,0.9,5.7,2.5,7.9C64,58.9,59.1,63.5,58,69.3c-2.2-1.5-4.9-2.4-7.7-2.4C47.2,66.9,44.4,67.9,42.1,69.6z"/>
	<g>
		<circle class="st1" cx="30.5" cy="30.4" r="8.3"/>
		<circle class="st0" cx="30.5" cy="30.4" r="5.1"/>
		<circle class="st1" cx="69.5" cy="30.4" r="8.3"/>
		<circle class="st0" cx="69.5" cy="30.4" r="5.1"/>
	</g>
	<path class="st1" d="M80.8,53.1c0,17-13.8,26-30.8,26s-30.8-9-30.8-26S33,20.9,50,20.9S80.8,36,80.8,53.1z"/>
	<g>
		<g>
			<ellipse class="st2" cx="45.4" cy="56.7" rx="6" ry="5.3"/>
			<ellipse class="st2" cx="54.6" cy="56.7" rx="6" ry="5.3"/>
		</g>
		<g>
			<circle class="st0" cx="45.2" cy="54" r="0.5"/>
			<circle class="st0" cx="45.2" cy="58.9" r="0.5"/>
			<circle class="st0" cx="43.1" cy="56.9" r="0.5"/>
			<circle class="st0" cx="47.2" cy="56.9" r="0.5"/>
			<circle class="st0" cx="54.9" cy="54" r="0.5"/>
			<circle class="st0" cx="54.9" cy="58.9" r="0.5"/>
			<circle class="st0" cx="52.8" cy="56.9" r="0.5"/>
			<circle class="st0" cx="56.9" cy="56.9" r="0.5"/>
		</g>
	</g>
	<g>
		<path class="st2" d="M38.9,44.1l6.9,1.5c0,0,1.4,5.4-4.6,4.2C35.7,48.6,38.9,44.1,38.9,44.1z"/>
		<path class="st0" d="M42,44.8c0,0-2.1,3.1,1.2,3.8c3.5,0.7,2.6-3,2.6-3L42,44.8z"/>
		<path class="st2" d="M61.1,44.1l-6.9,1.5c0,0-1.4,5.4,4.6,4.2C64.3,48.6,61.1,44.1,61.1,44.1z"/>
		<path class="st0" d="M58,44.8c0,0,2.1,3.1-1.2,3.8c-3.5,0.7-2.6-3-2.6-3L58,44.8z"/>
	</g>
	<rect x="49.4" y="54" class="st0" width="1.2" height="11.7"/>
	<rect x="43.4" y="64.9" class="st0" width="13.3" height="1.1"/>
	<path class="st0" d="M48,51.5H52c1.4,0,2.1,1.6,1.1,2.6l-2,2.1c-0.6,0.6-1.6,0.6-2.2,0l-2-2.1C45.9,53.1,46.6,51.5,48,51.5z"/>
	<g>
		<ellipse class="st3" cx="33.6" cy="51.5" rx="4.1" ry="2.6"/>
		<ellipse class="st3" cx="66.4" cy="51.5" rx="4.1" ry="2.6"/>
	</g>
</g>
</svg>
