<?xml version="1.0" encoding="utf-8"?>
<!-- Generator: Adobe Illustrator 24.0.1, SVG Export Plug-In . SVG Version: 6.00 Build 0)  -->
<svg version="1.1" id="레이어_1" xmlns="http://www.w3.org/2000/svg" xmlns:xlink="http://www.w3.org/1999/xlink" x="0px"
	 y="0px" viewBox="0 0 100 100" style="enable-background:new 0 0 100 100;" xml:space="preserve">
<style type="text/css">
	.st0{fill:#EFD6BD;}
	.st1{fill:#DDA86F;}
	.st2{fill:#FFFFFF;}
	.st3{fill:#161613;}
</style>
<g>
	<path class="st0" d="M51.4,88.1c13.2-0.1,36.5-14.7,33.3-17.5c-3.2-2.8-3.1-5.9-3.1-5.9s-0.9-7.6-31.5-7.6s-31.6,7.6-31.6,7.6
		s0.1,3.1-3.1,5.9c-3.2,2.8,20.1,17.3,33.3,17.5H51.4z"/>
	<g>
		<path class="st1" d="M41.9,47c0,0-2.4-23.8-3.8-32C35.8,1.2,8,37.8,26.5,48C53.1,62.5,41.9,47,41.9,47z"/>
		<path class="st0" d="M35,12c0,0,3.4,3.4-2,20s-0.4,20.2-0.4,20.2s-14.6-3.8-13-17.6C21.2,21.1,29,12.3,35,12z"/>
		<path class="st1" d="M58.1,47c0,0,2.4-23.8,3.8-32C64.2,1.2,92,37.8,73.5,48C46.9,62.5,58.1,47,58.1,47z"/>
		<path class="st0" d="M65,12c0,0-3.4,3.4,2,20s0.4,20.2,0.4,20.2s14.6-3.8,13-17.6C78.8,21.1,71,12.3,65,12z"/>
	</g>
	<g>
		<path class="st2" d="M32.5,35.7c0,0,0.9-4.6-0.9-5c-1.2-0.3-1.6,1.9-0.4,4c0,0-1.9-3.8-3.5-2.7c-1.6,1.1-0.7,3.1,1.1,4.4
			c0,0-2.7-1.1-3.9,0.6c-1.2,1.7,1.3,3.5,3.4,2.4c0,0-2.5,0.9-1.8,2.4s2.2,1.3,3.2,0.1C30.8,40.8,31.9,40.3,32.5,35.7z"/>
		<path class="st2" d="M67.5,35.7c0,0-0.9-4.6,0.9-5c1.2-0.3,1.6,1.9,0.4,4c0,0,1.9-3.8,3.5-2.7c1.6,1.1,0.7,3.1-1.1,4.4
			c0,0,2.7-1.1,3.9,0.6c1.2,1.7-1.3,3.5-3.4,2.4c0,0,2.5,0.9,1.8,2.4s-2.2,1.3-3.2,0.1C69.2,40.8,68.1,40.3,67.5,35.7z"/>
	</g>
	<path class="st1" d="M51.6,81.7c0,0,4.4-17,15.4-15.2s13.2-0.3,13.2-0.3s3,0.4-0.6-11.3S68.2,39.6,68.2,39.6
		c-23.5-6.7-36.5,0-36.5,0S24,43.1,20.3,54.9s-0.6,11.3-0.6,11.3s2.2,2.1,13.2,0.3s15.4,15.2,15.4,15.2H51.6z"/>
	<path class="st3" d="M52.8,79.8c0,1.6-1.3,2.8-2.8,2.8s-2.8-1.3-2.8-2.8s1.3-1.6,2.8-1.6S52.8,78.2,52.8,79.8z"/>
	<path class="st3" d="M50,85.8L50,85.8c-0.5,0-0.9-0.4-0.9-0.9v-2.8c0-0.5,0.4-0.9,0.9-0.9l0,0c0.5,0,0.9,0.4,0.9,0.9V85
		C50.9,85.4,50.5,85.8,50,85.8z"/>
	<g>
		<path class="st3" d="M44,64.5c-0.2,0-0.4-0.1-0.5-0.2c-3.3-3.1-8.4-2.6-8.4-2.6c-0.4,0-0.8-0.3-0.8-0.7c0-0.4,0.3-0.8,0.7-0.8
			c0.2,0,5.8-0.6,9.6,3c0.3,0.3,0.3,0.8,0,1.1C44.4,64.4,44.2,64.5,44,64.5z"/>
		<path class="st3" d="M56,64.5c-0.2,0-0.4-0.1-0.6-0.2c-0.3-0.3-0.3-0.8,0-1.1c3.8-3.5,9.4-3,9.6-3c0.4,0,0.7,0.4,0.7,0.8
			s-0.4,0.7-0.8,0.7c-0.1,0-5.1-0.5-8.4,2.6C56.4,64.5,56.2,64.5,56,64.5z"/>
	</g>
</g>
</svg>
