<?xml version="1.0" encoding="utf-8"?>
<!-- Generator: Adobe Illustrator 24.0.1, SVG Export Plug-In . SVG Version: 6.00 Build 0)  -->
<svg version="1.1" id="레이어_1" xmlns="http://www.w3.org/2000/svg" xmlns:xlink="http://www.w3.org/1999/xlink" x="0px"
	 y="0px" viewBox="0 0 100 100" style="enable-background:new 0 0 100 100;" xml:space="preserve">
<style type="text/css">
	.st0{fill:#A56A23;}
	.st1{fill:#C0812F;}
	.st2{fill:#D0B89B;}
	.st3{fill:#FFFFFF;}
	.st4{fill:#070606;}
	.st5{fill:#F6D95F;}
</style>
<g>
	<g>
		<g>
			<g>
				<g>
					<path class="st0" d="M29.3,37.2c0,0-9.3,7.4-9.3,21s14.6,21,14.6,21L29.3,37.2z"/>
					<path class="st0" d="M70.7,37.2c0,0,9.3,7.4,9.3,21s-14.6,21-14.6,21L70.7,37.2z"/>
				</g>
			</g>
			<path class="st1" d="M56,82.3c31.7,0.6,14.8-56.2,14.8-56.2s2.9-7,0-8.1c-2.9-1.1-7.4,2.3-7.4,2.3c-18.5-3.1-26.8,0-26.8,0
				s-4.5-3.4-7.4-2.3c-2.9,1.1,0,8.1,0,8.1S12.3,82.9,44,82.3H56z"/>
		</g>
		<ellipse class="st2" cx="50" cy="61" rx="18.9" ry="17.5"/>
		<g>
			<g>
				<path class="st0" d="M41.3,55.7c-1.4,0-2.4-1-2.5-1.1c-0.3-0.3-0.3-0.7,0-0.9c0.3-0.3,0.7-0.3,0.9,0c0,0,0.7,0.7,1.6,0.7
					c0.5,0,0.9-0.2,1.3-0.7c0.3-0.3,0.7-0.3,0.9,0c0.3,0.3,0.3,0.7,0,0.9C43,55.4,42.2,55.7,41.3,55.7
					C41.3,55.7,41.3,55.7,41.3,55.7z"/>
				<path class="st0" d="M50.1,55.7c-1.4,0-2.4-1-2.5-1.1c-0.3-0.3-0.3-0.7,0-0.9c0.3-0.3,0.7-0.3,0.9,0c0,0,0.7,0.7,1.6,0.7
					c0.5,0,0.9-0.2,1.3-0.7c0.3-0.3,0.7-0.3,0.9,0c0.3,0.3,0.3,0.7,0,0.9C51.7,55.4,50.9,55.7,50.1,55.7
					C50.1,55.7,50.1,55.7,50.1,55.7z"/>
				<path class="st0" d="M58.8,55.7c-1.4,0-2.4-1-2.5-1.1c-0.3-0.3-0.3-0.7,0-0.9c0.3-0.3,0.7-0.3,0.9,0c0,0,0.7,0.7,1.6,0.7
					c0.5,0,0.9-0.2,1.3-0.7c0.3-0.3,0.7-0.3,0.9,0c0.3,0.3,0.3,0.7,0,0.9C60.5,55.4,59.7,55.7,58.8,55.7
					C58.9,55.7,58.8,55.7,58.8,55.7z"/>
			</g>
			<g>
				<path class="st0" d="M41.3,61.9c-1.4,0-2.4-1-2.5-1.1c-0.3-0.3-0.3-0.7,0-0.9c0.3-0.3,0.7-0.3,0.9,0c0,0,0.7,0.7,1.6,0.7
					c0.5,0,0.9-0.2,1.3-0.7c0.3-0.3,0.7-0.3,0.9,0c0.3,0.3,0.3,0.7,0,0.9C43,61.5,42.2,61.8,41.3,61.9
					C41.3,61.9,41.3,61.9,41.3,61.9z"/>
				<path class="st0" d="M50.1,61.9c-1.4,0-2.4-1-2.5-1.1c-0.3-0.3-0.3-0.7,0-0.9c0.3-0.3,0.7-0.3,0.9,0c0,0,0.7,0.7,1.6,0.7
					c0.5,0,0.9-0.2,1.3-0.7c0.3-0.3,0.7-0.3,0.9,0c0.3,0.3,0.3,0.7,0,0.9C51.7,61.5,50.9,61.8,50.1,61.9
					C50.1,61.9,50.1,61.9,50.1,61.9z"/>
				<path class="st0" d="M58.8,61.9c-1.4,0-2.4-1-2.5-1.1c-0.3-0.3-0.3-0.7,0-0.9c0.3-0.3,0.7-0.3,0.9,0c0,0,0.7,0.7,1.6,0.7
					c0.5,0,0.9-0.2,1.3-0.7c0.3-0.3,0.7-0.3,0.9,0c0.3,0.3,0.3,0.7,0,0.9C60.5,61.5,59.7,61.8,58.8,61.9
					C58.9,61.9,58.8,61.9,58.8,61.9z"/>
			</g>
			<g>
				<path class="st0" d="M41.3,68c-1.4,0-2.4-1-2.5-1.1c-0.3-0.3-0.3-0.7,0-0.9c0.3-0.3,0.7-0.3,0.9,0c0,0,0.7,0.7,1.6,0.7
					c0.5,0,0.9-0.2,1.3-0.7c0.3-0.3,0.7-0.3,0.9,0c0.3,0.3,0.3,0.7,0,0.9C43,67.6,42.2,68,41.3,68C41.3,68,41.3,68,41.3,68z"/>
				<path class="st0" d="M50.1,68c-1.4,0-2.4-1-2.5-1.1c-0.3-0.3-0.3-0.7,0-0.9c0.3-0.3,0.7-0.3,0.9,0c0,0,0.7,0.7,1.6,0.7
					c0.5,0,0.9-0.2,1.3-0.7c0.3-0.3,0.7-0.3,0.9,0c0.3,0.3,0.3,0.7,0,0.9C51.7,67.6,50.9,68,50.1,68C50.1,68,50.1,68,50.1,68z"/>
				<path class="st0" d="M58.8,68c-1.4,0-2.4-1-2.5-1.1c-0.3-0.3-0.3-0.7,0-0.9c0.3-0.3,0.7-0.3,0.9,0c0,0,0.7,0.7,1.6,0.7
					c0.5,0,0.9-0.2,1.3-0.7c0.3-0.3,0.7-0.3,0.9,0c0.3,0.3,0.3,0.7,0,0.9C60.5,67.6,59.7,68,58.8,68C58.9,68,58.8,68,58.8,68z"/>
			</g>
		</g>
	</g>
	<g>
		<circle class="st3" cx="41.2" cy="36.9" r="6.6"/>
		<circle class="st4" cx="43.3" cy="36.7" r="3.1"/>
		<circle class="st3" cx="58.8" cy="36.9" r="6.6"/>
		<circle class="st4" cx="56.7" cy="36.7" r="3.1"/>
	</g>
	<path class="st5" d="M48.8,37.7l-0.9,0.8c-0.4,0.4-0.6,1-0.3,1.5l1.8,3.7c0.2,0.5,0.9,0.5,1.2,0l1.8-3.7c0.3-0.5,0.1-1.1-0.3-1.5
		l-0.9-0.8C50.5,37.1,49.5,37.1,48.8,37.7z"/>
</g>
<g>
	<path class="st5" d="M43.9,81.6c-0.4-0.1-0.9,0-1.3,0.2c-1.2,0.7-3.2,2.4,0.6,2.7C48.1,84.9,49,82.7,43.9,81.6z"/>
	<path class="st5" d="M56.1,81.6c0.4-0.1,0.9,0,1.3,0.2c1.2,0.7,3.2,2.4-0.6,2.7C51.9,84.9,51,82.7,56.1,81.6z"/>
</g>
</svg>
