<?xml version="1.0" encoding="utf-8"?>
<!-- Generator: Adobe Illustrator 24.0.1, SVG Export Plug-In . SVG Version: 6.00 Build 0)  -->
<svg version="1.1" id="레이어_1" xmlns="http://www.w3.org/2000/svg" xmlns:xlink="http://www.w3.org/1999/xlink" x="0px"
	 y="0px" viewBox="0 0 137.7 196" style="enable-background:new 0 0 137.7 196;" xml:space="preserve">
<style type="text/css">
	.st0{fill:#FFFFFF;}
</style>
<g>
	<rect x="40.7" class="st0" width="56.3" height="20.4"/>
	
		<rect x="-47.1" y="87.8" transform="matrix(-1.836970e-16 1 -1 -1.836970e-16 108.2157 87.8157)" class="st0" width="114.6" height="20.4"/>
	
		<rect x="70.2" y="87.8" transform="matrix(-1.836970e-16 1 -1 -1.836970e-16 225.5491 -29.5176)" class="st0" width="114.6" height="20.4"/>
	<rect x="97" y="20.4" class="st0" width="20.3" height="20.3"/>
	<rect x="20.4" y="20.4" class="st0" width="20.3" height="20.3"/>
	
		<rect x="40.7" y="175.6" transform="matrix(-1 -1.224647e-16 1.224647e-16 -1 137.7333 371.663)" class="st0" width="56.3" height="20.4"/>
	
		<rect x="20.4" y="155.3" transform="matrix(-1 -1.224647e-16 1.224647e-16 -1 61.1185 330.9444)" class="st0" width="20.3" height="20.3"/>
	
		<rect x="97" y="155.3" transform="matrix(-1 -1.224647e-16 1.224647e-16 -1 214.3481 330.9444)" class="st0" width="20.3" height="20.3"/>
</g>
</svg>
