<?xml version="1.0" encoding="utf-8"?>
<!-- Generator: Adobe Illustrator 24.0.1, SVG Export Plug-In . SVG Version: 6.00 Build 0)  -->
<svg version="1.1" id="레이어_1" xmlns="http://www.w3.org/2000/svg" xmlns:xlink="http://www.w3.org/1999/xlink" x="0px"
	 y="0px" viewBox="0 0 100 100" style="enable-background:new 0 0 100 100;" xml:space="preserve">
<style type="text/css">
	.st0{clip-path:url(#SVGID_2_);fill:#BEE4F4;}
	.st1{fill:#8CCFF4;}
	.st2{fill:#5590AA;}
	.st3{fill:#FFC7C7;}
</style>
<g>
	<g>
		<defs>
			<path id="SVGID_1_" d="M47.6,29.2c-21-0.4-33.7,14.3-32.7,28.1c0,0-6.3,1.4-3.8,4.8c0,0-0.5,2,1.3,1.7s9-1.6,30.7,1
				c21.8,2.7,31.2-6.5,35.5,3.6c0,0-5.1,7.7-2.5,14.1c0,0,8.1-3,9-11.4c0,0,7.8,3.3,12.6-1.5c0,0-3.9-6.9-14.7-3.6
				c0,0-0.4-17.7-20.3-31.8c0,0,0-4.1,4.9-7.5c1.4-1,1.7-2.5,0-2.9C63.1,23,55.7,23,47.6,29.2z"/>
		</defs>
		<use xlink:href="#SVGID_1_"  style="overflow:visible;fill:#8CCFF4;"/>
		<clipPath id="SVGID_2_">
			<use xlink:href="#SVGID_1_"  style="overflow:visible;"/>
		</clipPath>
		<path class="st0" d="M21.7,63.9c0,0,17.2-5,27.8-5s18.1,0.8,25.9,6.2C83.3,70.6,30.3,80.5,30,80S21.7,63.9,21.7,63.9z"/>
	</g>
	<path class="st1" d="M43,57.4c0,0,1.4,11.2,11.5,15.2c1.7,0.7,3.1,0.3,2.6-1.1c-1.2-3-2-8.5-0.3-13.2"/>
	<path class="st2" d="M11.2,62.4c-0.1,0-0.3-0.1-0.3-0.3c0-0.2,0.1-0.3,0.3-0.3c0,0,0.8-0.1,3.1-1.1c1.1-0.5,1.4-0.4,2.5-0.5
		c1.1-0.1,2-0.2,2.3-0.8c0.1-0.1,0.2-0.2,0.4-0.1c0.1,0.1,0.2,0.2,0.1,0.4c-0.4,0.9-1.5,1-2.8,1.1c-1,0.1-1.7,0.2-2.7,0.6
		C11.6,62.5,11.3,62.4,11.2,62.4C11.2,62.4,11.2,62.4,11.2,62.4z"/>
	<circle class="st2" cx="22.8" cy="52" r="1.1"/>
	<ellipse transform="matrix(0.9686 -0.2487 0.2487 0.9686 -12.3322 8.5212)" class="st3" cx="27.6" cy="53.1" rx="2.3" ry="1.3"/>
</g>
</svg>
