<?xml version="1.0" encoding="utf-8"?>
<!-- Generator: Adobe Illustrator 24.0.1, SVG Export Plug-In . SVG Version: 6.00 Build 0)  -->
<svg version="1.1" id="레이어_1" xmlns="http://www.w3.org/2000/svg" xmlns:xlink="http://www.w3.org/1999/xlink" x="0px"
	 y="0px" viewBox="0 0 100 100" style="enable-background:new 0 0 100 100;" xml:space="preserve">
<style type="text/css">
	.st0{fill:#88BD2A;}
	.st1{fill:#EFB43C;}
	.st2{fill:#4A8CCA;}
	.st3{fill:#E53E3E;}
	.st4{fill:#FFFFFF;}
</style>
<g>
	<g>
		<g>
			<g>
				<g>
					<path class="st0" d="M19.6,60.2c0,0-9.8,0.6-11.7,2.9c-1.8,2.3,1.5,4.5,5.4,4.5c0,0-3.2,4.1,1.8,4.2c0,0-0.6,3.2,2.4,2.6
						c2.9-0.6,7.5-7.5,7.5-7.5L19.6,60.2z"/>
					<path class="st1" d="M22,59.5c0,0-8.9,0.6-10.5,2.7s1.4,4,4.8,4.1c0,0-2.8,3.6,1.7,3.7c0,0-0.5,2.9,2.2,2.3
						c2.7-0.6,6.9-6.8,6.9-6.8L22,59.5z"/>
					<path class="st2" d="M25.6,58.1c0,0-8.5,1-10.2,3.1c-1.7,2,1.1,3.6,4.5,3.4c0,0-2.9,3.4,1.4,3.3c0,0-0.6,2.7,1.9,2
						c2.6-0.8,6.9-6.6,6.9-6.6L25.6,58.1z"/>
				</g>
			</g>
		</g>
		<g>
			<g>
				<g>
					<path class="st0" d="M80.4,60.2c0,0,9.8,0.6,11.7,2.9c1.8,2.3-1.5,4.5-5.4,4.5c0,0,3.2,4.1-1.8,4.2c0,0,0.6,3.2-2.4,2.6
						c-2.9-0.6-7.5-7.5-7.5-7.5L80.4,60.2z"/>
					<path class="st1" d="M78,59.5c0,0,8.9,0.6,10.5,2.7c1.5,2-1.4,4-4.8,4.1c0,0,2.8,3.6-1.7,3.7c0,0,0.5,2.9-2.2,2.3
						c-2.7-0.6-6.9-6.8-6.9-6.8L78,59.5z"/>
					<path class="st2" d="M74.4,58.1c0,0,8.5,1,10.2,3.1c1.7,2-1.1,3.6-4.5,3.4c0,0,2.9,3.4-1.4,3.3c0,0,0.6,2.7-1.9,2
						c-2.6-0.8-6.9-6.6-6.9-6.6L74.4,58.1z"/>
				</g>
			</g>
		</g>
	</g>
	<g>
		<path class="st3" d="M46.5,26.9c0,0,1.3-7.4,9.1-13.1c1.3-1,3.1,0.5,2.4,2c-2,3.9-4,9.1-2.4,11.2c0,0,0.3-1.4,1.8-3
			c1.6-1.8,4.6-0.3,4.2,2.1c-0.2,1.3-0.3,2.6-0.1,3.5C62.3,32.2,48.5,36.4,46.5,26.9z"/>
		<path class="st3" d="M77.7,61.9c0,20-12.4,18.3-27.7,18.3s-27.7,1.6-27.7-18.3S34.7,25.7,50,25.7S77.7,41.9,77.7,61.9z"/>
		<g>
			<path class="st4" d="M44.6,48.8c0,3.8-2.1,5.9-4.8,5.9s-4.8-2-4.8-5.9s2.1-7,4.8-7S44.6,45,44.6,48.8z"/>
			<circle cx="42.1" cy="48.3" r="2.3"/>
			<path class="st4" d="M55.4,48.8c0,3.8,2.1,5.9,4.8,5.9s4.8-2.1,4.8-5.9s-2.1-7-4.8-7S55.4,45,55.4,48.8z"/>
			<circle cx="57.9" cy="48.3" r="2.3"/>
		</g>
		<g>
			<path d="M46.2,56.2c0,0-0.3,2.3,4.4,2.3s4-2.9,4-2.9S47.3,53.2,46.2,56.2z"/>
			<path class="st1" d="M46.4,56.6c-0.8,0-1.4-0.6-1.4-1.4c-0.1-2.1,0.8-7.7,4.9-7.9c5-0.2,5.5,5.2,5.5,7.8c0,0.8-0.6,1.4-1.4,1.4
				h-7.6V56.6z"/>
		</g>
	</g>
</g>
</svg>
