<?xml version="1.0" encoding="utf-8"?>
<!-- Generator: Adobe Illustrator 24.0.1, SVG Export Plug-In . SVG Version: 6.00 Build 0)  -->
<svg version="1.1" id="레이어_1" xmlns="http://www.w3.org/2000/svg" xmlns:xlink="http://www.w3.org/1999/xlink" x="0px"
	 y="0px" viewBox="0 0 100 100" style="enable-background:new 0 0 100 100;" xml:space="preserve">
<style type="text/css">
	.st0{fill:#96B1D9;}
	.st1{fill:#EAB0BD;}
	.st2{fill:#445D75;}
	.st3{fill:#DC8C9A;}
	.st4{fill:#FFFFFF;}
	.st5{fill:#E0EDF9;}
</style>
<g>
	<g>
		<path class="st0" d="M36.7,34.1c0,0-13.7-11.8-25.9,2.2s7.5,24.6,6.9,26.8s-0.9,15.6,20.9,3.1S36.7,34.1,36.7,34.1z"/>
	</g>
	<path class="st1" d="M36.7,35.9c0,0-11.8-10.7-22.2,2s6.4,22.2,5.9,24.2c-0.5,2-0.8,14.1,17.9,2.8S36.7,35.9,36.7,35.9z"/>
	<g>
		<path class="st0" d="M63.3,31.3c0,0,13.7-11.8,25.9,2.2s-7.5,24.6-6.9,26.8s0.9,15.6-20.9,3.1S63.3,31.3,63.3,31.3z"/>
	</g>
	<path class="st1" d="M63.3,33.1c0,0,11.8-10.7,22.2,2s-6.4,22.2-5.9,24.2s0.8,14.1-17.9,2.8S63.3,33.1,63.3,33.1z"/>
	<g>
		<path class="st0" d="M41.6,73.7c-25.8,0.2-19.5-14.9-14.8-32s18.7-15.3,18.7-15.3h4.8c0,0,13.9-1.8,18.7,15.3
			c4.8,17.2,11,32.3-14.8,32H41.6z"/>
	</g>
	<g>
		<path class="st2" d="M41.6,64.3c0,0,9.3,7.4,13-4.7C54.6,59.5,49.3,58.9,41.6,64.3z"/>
		<path class="st2" d="M47.5,67c-3.3,0-6.1-2.3-6.3-2.4l-0.6-0.4l0.6-0.4c7.9-5.4,13.2-4.8,13.4-4.8l0.6,0.1L55,59.7
			c-1.2,3.9-3.1,6.3-5.6,7.1C48.8,67,48.2,67,47.5,67z M42.5,64.3c1.2,0.8,4,2.3,6.7,1.5c2.1-0.6,3.6-2.6,4.7-5.7
			C52.3,60.1,48.1,60.5,42.5,64.3z"/>
	</g>
	<g>
		<path class="st3" d="M48.1,63.3c0,0-4.5,1.8-3.1,2.7c1.1,0.7,6.4,0.5,7.9-2.7C54.4,60,48.1,63.3,48.1,63.3z"/>
		<path class="st2" d="M46.8,66.9c-0.9,0-1.7-0.2-2.1-0.5c-0.5-0.3-0.5-0.8-0.5-1c0.1-1.2,2.6-2.2,3.7-2.7c1.3-0.7,4.5-2.1,5.5-1.2
			c0.4,0.4,0.4,1,0,1.9c-0.7,1.5-2.2,2.6-4.1,3.1C48.4,66.8,47.6,66.9,46.8,66.9z M45.2,65.6C45.2,65.6,45.3,65.6,45.2,65.6
			c0.4,0.3,1.9,0.5,3.7,0c1-0.3,2.7-0.9,3.5-2.5c0.2-0.5,0.2-0.7,0.2-0.7c-0.3-0.2-2.4,0.4-4.3,1.4l0,0
			C46.8,64.4,45.4,65.2,45.2,65.6z"/>
	</g>
	<g>
		<circle class="st2" cx="35.6" cy="50" r="2.4"/>
		<circle class="st4" cx="36.8" cy="49.3" r="0.7"/>
	</g>
	<g>
		<circle class="st2" cx="51.7" cy="47.6" r="2.4"/>
		<circle class="st4" cx="52.9" cy="46.9" r="0.7"/>
	</g>
	<path class="st2" d="M30.9,46.4c-0.3,0-0.5-0.2-0.5-0.5c0-0.1-0.2-1.9,2.7-2.6c0.3-0.1,0.6,0.1,0.6,0.4c0.1,0.3-0.1,0.6-0.4,0.6
		c-1.9,0.5-1.9,1.5-1.9,1.5C31.5,46.2,31.3,46.4,30.9,46.4C31,46.4,31,46.4,30.9,46.4z"/>
	<path class="st2" d="M55.9,44.1C55.8,44.1,55.8,44.1,55.9,44.1c-0.3,0-0.5-0.3-0.5-0.6c0-0.1,0-1-1.9-1.5c-0.3-0.1-0.4-0.4-0.4-0.6
		c0.1-0.3,0.4-0.4,0.6-0.4c2.9,0.8,2.7,2.6,2.7,2.6C56.4,43.9,56.1,44.1,55.9,44.1z"/>
	<g>
		<path class="st5" d="M35.6,56.2c0,0-3.1-0.4-3.5-1.2c-0.4-0.8-0.4,3.2,1.2,3.8C34.9,59.4,35.8,57.1,35.6,56.2z"/>
		<path class="st2" d="M33.8,59.4c-0.2,0-0.4,0-0.6-0.1c-1.6-0.5-1.9-3.1-1.8-3.9c0-0.3,0-0.9,0.5-1c0.2,0,0.5,0,0.7,0.4
			c0.2,0.3,1.7,0.7,3.1,0.9h0.4l0.1,0.4c0.1,0.8-0.3,2.1-1.1,2.8C34.7,59.2,34.3,59.4,33.8,59.4z M32.4,55.9
			c0.1,0.9,0.4,2.2,1.1,2.4c0.4,0.1,0.6,0.1,0.9-0.2c0.4-0.3,0.7-1,0.7-1.5C34.3,56.5,33.2,56.3,32.4,55.9z"/>
	</g>
	<g>
		<path class="st0" d="M43.6,50.5c0,0-4.3-0.5-10.9,9.1C26.9,68,21.6,61.1,21.1,59s-2.2,0.3-1.4,2.4c0,0-4,0.1-1.7,1.5
			s8.9,11.4,19,4.1s15.9-7.5,15.9-7.5"/>
		<path class="st2" d="M29.8,70.2c-4.8,0-8.4-3.5-10.5-5.5c-0.6-0.6-1.2-1.1-1.5-1.3s-1.1-0.7-0.9-1.4s1.2-0.9,2.2-1
			c-0.2-1.1,0.1-2.2,0.6-2.8c0.3-0.3,0.7-0.5,1-0.4c0.4,0.1,0.7,0.5,0.9,1.2c0.2,1,1.9,3.7,4.5,4.2c2.1,0.4,4.2-0.9,6.2-3.8
			C39,49.7,43.5,50,43.7,50l-0.1,1l0.1-0.5V51c0,0-4.1-0.2-10.4,8.9c-2.8,4.1-5.5,4.5-7.3,4.2c-2.9-0.5-5-3.5-5.3-4.9
			c0-0.2-0.1-0.3-0.1-0.3c-0.3,0.3-0.7,1.4-0.3,2.4l0.3,0.7h-0.7c-0.7,0-1.4,0.1-1.8,0.3c0.1,0.1,0.2,0.1,0.4,0.3
			c0.5,0.3,1,0.8,1.7,1.5c3,2.9,8.7,8.4,16.6,2.7c10.1-7.3,16-7.5,16.2-7.5v1.1c-0.1,0-5.8,0.3-15.6,7.4
			C34.5,69.4,32,70.2,29.8,70.2z"/>
	</g>
	<g>
		<path class="st5" d="M54.7,59.2c0.3-0.1,0.4-0.5,0.1-0.6c-0.5-0.4-1.4-1.1-2.2-2.1c-1.2-1.6-1.7,1.5-1.2,3.4
			C51.4,59.8,53.6,59.5,54.7,59.2z"/>
		<path class="st2" d="M51,60.4L50.9,60c-0.4-1.4-0.4-3.9,0.6-4.4c0.3-0.1,0.8-0.3,1.5,0.5c0.8,1,1.7,1.7,2.1,2
			c0.3,0.2,0.4,0.5,0.3,0.9c-0.1,0.3-0.3,0.6-0.6,0.7l0,0c-1.1,0.4-3.3,0.6-3.3,0.6L51,60.4z M52,56.5c-0.2,0.3-0.4,1.5-0.2,2.7
			c0.6-0.1,1.7-0.2,2.4-0.4c-0.6-0.5-1.3-1.1-2-2C52.1,56.6,52,56.6,52,56.5z"/>
	</g>
	<g>
		<path class="st2" d="M39.3,52.4c0,0,2.7,1.8,3.7,4.5"/>
		<path class="st2" d="M42.4,57.1c-0.9-2.5-3.4-4.2-3.5-4.2l0.6-0.9c0.1,0.1,2.9,1.9,3.9,4.8L42.4,57.1z"/>
	</g>
	<g>
		<path class="st2" d="M36.2,55.2c0,0,2,1.4,3.1,3.6"/>
		<path class="st2" d="M38.8,59.1c-1-2-2.9-3.4-2.9-3.4l0.6-0.9c0.1,0.1,2.1,1.5,3.3,3.8L38.8,59.1z"/>
	</g>
</g>
</svg>
