<?xml version="1.0" encoding="utf-8"?>
<!-- Generator: Adobe Illustrator 24.0.1, SVG Export Plug-In . SVG Version: 6.00 Build 0)  -->
<svg version="1.1" id="레이어_1" xmlns="http://www.w3.org/2000/svg" xmlns:xlink="http://www.w3.org/1999/xlink" x="0px"
	 y="0px" viewBox="0 0 100 100" style="enable-background:new 0 0 100 100;" xml:space="preserve">
<style type="text/css">
	.st0{fill:#937F6F;}
	.st1{fill:#FFBDBD;}
	.st2{fill:#FFFFFF;}
	.st3{fill:#333232;}
</style>
<g>
	<g>
		<g>
			<circle class="st0" cx="27.2" cy="29.2" r="14.8"/>
			<circle class="st1" cx="27.2" cy="29.2" r="7.3"/>
		</g>
		<g>
			<circle class="st0" cx="72.8" cy="29.2" r="14.8"/>
			<circle class="st1" cx="72.8" cy="29.2" r="7.3"/>
		</g>
	</g>
	<path class="st0" d="M61.5,85.7h-23c-13.9,0-24.7-12-23.3-25.8l0.7-6.3C17.7,36,32.4,22.7,50,22.7h0c17.6,0,32.3,13.3,34.1,30.8
		l0.7,6.3C86.2,73.6,75.4,85.7,61.5,85.7z"/>
	<circle class="st2" cx="50" cy="61.1" r="9"/>
	<g>
		<path class="st1" d="M32.3,61.1H27c-1.5,0-2.7-1.2-2.7-2.7v-0.9c0-1.5,1.2-2.7,2.7-2.7h5.3c1.5,0,2.7,1.2,2.7,2.7v0.9
			C35,59.9,33.8,61.1,32.3,61.1z"/>
		<path class="st1" d="M73,61.1h-5.3c-1.5,0-2.7-1.2-2.7-2.7v-0.9c0-1.5,1.2-2.7,2.7-2.7H73c1.5,0,2.7,1.2,2.7,2.7v0.9
			C75.7,59.9,74.5,61.1,73,61.1z"/>
	</g>
	<g>
		<circle class="st3" cx="38.3" cy="48.8" r="2.4"/>
		<circle class="st3" cx="61.7" cy="48.8" r="2.4"/>
	</g>
	<ellipse class="st3" cx="50" cy="56.2" rx="3.2" ry="2.5"/>
	<path class="st3" d="M50,63.7c-0.6,0-1-0.4-1-1v-5.6c0-0.6,0.4-1,1-1c0.6,0,1,0.4,1,1v5.6C51,63.2,50.6,63.7,50,63.7z"/>
	<path class="st3" d="M54.2,64.5h-8.3c-0.6,0-1-0.4-1-1s0.4-1,1-1h8.3c0.6,0,1,0.4,1,1S54.7,64.5,54.2,64.5z"/>
</g>
</svg>
