<?xml version="1.0" encoding="utf-8"?>
<!-- Generator: Adobe Illustrator 24.0.1, SVG Export Plug-In . SVG Version: 6.00 Build 0)  -->
<svg version="1.1" id="레이어_1" xmlns="http://www.w3.org/2000/svg" xmlns:xlink="http://www.w3.org/1999/xlink" x="0px"
	 y="0px" viewBox="0 0 100 100" style="enable-background:new 0 0 100 100;" xml:space="preserve">
<style type="text/css">
	.st0{fill:#FAFAFA;}
	.st1{fill:#3C1E1E;}
	.st2{fill-rule:evenodd;clip-rule:evenodd;fill:#3C1E1E;}
</style>
<circle class="st0" cx="50" cy="50" r="45.3"/>
<g transform="translate(-187.3 1562.9)">
	<g transform="matrix(1.0008 0 0 1.0008 -.14946 -.38431)">
		<path class="st1" d="M245-1532.8c-1.1,0-2.1,0.4-2.9,1.2l-9,9c-1.6,1.6-1.6,4.2,0,5.8l0.6,0.6l3-3l-0.6-0.5l8.9-8.9l9.6,9.6
			l-8.9,8.9l-0.5-0.6l-3,3l0.6,0.6c1.6,1.6,4.2,1.6,5.8,0l9-9c1.6-1.6,1.6-4.2,0-5.8l-9.7-9.7C247.1-1532.4,246-1532.8,245-1532.8
			L245-1532.8z"/>
		<path class="st1" d="M228.8-1516.7c-1.1,0-2.1,0.4-2.9,1.2l-9,9c-1.6,1.6-1.6,4.2,0,5.8l9.7,9.7c1.6,1.6,4.2,1.6,5.8,0l9-9
			c1.6-1.6,1.6-4.2,0-5.8l-0.6-0.6l-3,3l0.6,0.5l-8.9,8.9l-9.6-9.6l8.9-8.9l0.6,0.6l3-3l-0.6-0.6
			C231-1516.3,229.9-1516.7,228.8-1516.7L228.8-1516.7z"/>
		<path class="st2" d="M241.1-1520.8c-0.2,0-0.5,0.1-0.7,0.3l-12.4,12.4c-0.4,0.4-0.4,1,0,1.3l4.7,4.7c0.4,0.4,0.9,0.4,1.3,0
			l12.4-12.4c0.4-0.4,0.4-0.9,0-1.3l-4.7-4.7C241.6-1520.7,241.3-1520.8,241.1-1520.8L241.1-1520.8z"/>
	</g>
</g>
</svg>
