<?xml version="1.0" encoding="utf-8"?>
<!-- Generator: Adobe Illustrator 24.0.1, SVG Export Plug-In . SVG Version: 6.00 Build 0)  -->
<svg version="1.1" id="레이어_1" xmlns="http://www.w3.org/2000/svg" xmlns:xlink="http://www.w3.org/1999/xlink" x="0px"
	 y="0px" viewBox="0 0 100 100" style="enable-background:new 0 0 100 100;" xml:space="preserve">
<style type="text/css">
	.st0{fill:#1D9BF0;}
	.st1{fill:#FFFFFF;}
</style>
<g>
	<circle class="st0" cx="50" cy="50" r="45.3"/>
	<path class="st1" d="M67.4,41.1c0,0.4,0,0.8,0,1.2c0,11.9-9,25.5-25.5,25.5v0c-4.9,0-9.7-1.4-13.8-4c0.7,0.1,1.4,0.1,2.1,0.1
		c4,0,8-1.4,11.1-3.8c-3.8-0.1-7.2-2.6-8.4-6.2c1.3,0.3,2.7,0.2,4.1-0.2c-4.2-0.8-7.2-4.5-7.2-8.8v-0.1c1.2,0.7,2.6,1.1,4.1,1.1
		c-3.9-2.6-5.2-7.9-2.8-12c4.6,5.6,11.3,9,18.5,9.4c-0.7-3.1,0.3-6.4,2.6-8.6c3.6-3.4,9.3-3.2,12.7,0.4c2-0.4,3.9-1.1,5.7-2.2
		c-0.7,2.1-2.1,3.8-3.9,5c1.8-0.2,3.5-0.7,5.2-1.4C70.7,38.2,69.1,39.8,67.4,41.1L67.4,41.1z"/>
</g>
</svg>
