<?xml version="1.0" encoding="utf-8"?>
<!-- Generator: Adobe Illustrator 24.0.1, SVG Export Plug-In . SVG Version: 6.00 Build 0)  -->
<svg version="1.1" id="레이어_1" xmlns="http://www.w3.org/2000/svg" xmlns:xlink="http://www.w3.org/1999/xlink" x="0px"
	 y="0px" viewBox="0 0 221.3 221.3" style="enable-background:new 0 0 221.3 221.3;" xml:space="preserve">
<style type="text/css">
	.st0{fill:#FFFFFF;}
</style>
<rect x="65.9" class="st0" width="89.8" height="20.9"/>
<rect x="-37.8" y="100.5" transform="matrix(-1.836970e-16 1 -1 -1.836970e-16 121.4339 100.5012)" class="st0" width="96.4" height="20.9"/>
<rect x="43.4" y="20.9" class="st0" width="22.5" height="20.9"/>
<rect x="99.4" y="10.5" class="st0" width="22.5" height="31.3"/>
<rect x="99.4" y="179.5" class="st0" width="22.5" height="35.2"/>
<rect x="77" y="41.8" class="st0" width="22.5" height="31.4"/>
<rect x="54.6" y="78.8" class="st0" width="22.5" height="64"/>
<rect x="144.3" y="77.5" class="st0" width="22.5" height="64"/>
<rect x="121.9" y="41.8" class="st0" width="22.5" height="31.4"/>
<rect x="77" y="144.1" class="st0" width="22.5" height="35.4"/>
<rect x="121.9" y="144.1" class="st0" width="22.5" height="35.4"/>
<rect x="20.9" y="41.8" class="st0" width="22.5" height="20.9"/>
<rect x="20.9" y="62.7" class="st0" width="179.4" height="20.9"/>
<rect x="20.9" y="137.6" class="st0" width="179.4" height="20.9"/>
<rect x="65.9" y="200.4" class="st0" width="89.8" height="20.9"/>
<rect x="43.4" y="179.5" class="st0" width="22.5" height="20.9"/>
<rect x="20.9" y="158.6" class="st0" width="22.5" height="20.9"/>
<rect x="162.6" y="100.5" transform="matrix(-4.181474e-11 1 -1 -4.181474e-11 321.7991 -99.864)" class="st0" width="96.4" height="20.9"/>
<rect x="155.4" y="20.9" transform="matrix(-1 -4.486645e-11 4.486645e-11 -1 333.3492 62.6954)" class="st0" width="22.5" height="20.9"/>
<rect x="177.9" y="41.8" transform="matrix(-1 -4.490687e-11 4.490687e-11 -1 378.2701 104.5607)" class="st0" width="22.5" height="20.9"/>
<rect x="155.4" y="179.5" transform="matrix(-1 -4.486645e-11 4.486645e-11 -1 333.3492 379.9046)" class="st0" width="22.5" height="20.9"/>
<rect x="177.9" y="158.6" transform="matrix(-1 -4.486645e-11 4.486645e-11 -1 378.2701 338.0393)" class="st0" width="22.5" height="20.9"/>
</svg>
