<?xml version="1.0" encoding="utf-8"?>
<!-- Generator: Adobe Illustrator 24.0.1, SVG Export Plug-In . SVG Version: 6.00 Build 0)  -->
<svg version="1.1" id="레이어_1" xmlns="http://www.w3.org/2000/svg" xmlns:xlink="http://www.w3.org/1999/xlink" x="0px"
	 y="0px" viewBox="0 0 221.3 221.3" style="enable-background:new 0 0 221.3 221.3;" xml:space="preserve">
<style type="text/css">
	.st0{fill:#FFFFFF;}
</style>
<g>
	<rect x="44" y="3.3" class="st0" width="133.3" height="20.4"/>
	
		<rect x="-53.2" y="100.5" transform="matrix(-1.836970e-16 1 -1 -1.836970e-16 124.1148 97.1852)" class="st0" width="133.3" height="20.4"/>
	<rect x="177.3" y="23.7" class="st0" width="20.3" height="20.3"/>
	<rect x="23.7" y="23.7" class="st0" width="20.3" height="20.3"/>
	
		<rect x="44" y="197.6" transform="matrix(-1 -1.224647e-16 1.224647e-16 -1 221.3 415.6704)" class="st0" width="133.3" height="20.4"/>
	
		<rect x="141.2" y="100.5" transform="matrix(6.123234e-17 -1 1 6.123234e-17 97.1852 318.4852)" class="st0" width="133.3" height="20.4"/>
	
		<rect x="177.3" y="177.3" transform="matrix(-1 -1.224647e-16 1.224647e-16 -1 374.9518 374.9518)" class="st0" width="20.3" height="20.3"/>
	
		<rect x="23.7" y="177.3" transform="matrix(-1 -1.224647e-16 1.224647e-16 -1 67.6482 374.9518)" class="st0" width="20.3" height="20.3"/>
</g>
<g>
	<rect x="76.4" y="76.4" class="st0" width="11.4" height="68.4"/>
	<rect x="82.1" y="82.1" class="st0" width="17.1" height="57"/>
	<rect x="94.2" y="87.8" class="st0" width="16.4" height="45.6"/>
	<rect x="105.1" y="93.5" class="st0" width="17" height="34.2"/>
	<rect x="116.8" y="99.2" class="st0" width="16.7" height="22.8"/>
	<rect x="127" y="104.9" class="st0" width="17.9" height="11.4"/>
</g>
</svg>
